<?xml version="1.0" encoding="UTF-8" standalone="no"?>
<!-- Created with Inkscape (http://www.inkscape.org/) -->

<svg
   xmlns:dc="http://purl.org/dc/elements/1.1/"
   xmlns:cc="http://creativecommons.org/ns#"
   xmlns:rdf="http://www.w3.org/1999/02/22-rdf-syntax-ns#"
   xmlns:svg="http://www.w3.org/2000/svg"
   xmlns="http://www.w3.org/2000/svg"
   xmlns:sodipodi="http://sodipodi.sourceforge.net/DTD/sodipodi-0.dtd"
   xmlns:inkscape="http://www.inkscape.org/namespaces/inkscape"
   version="1.1"
   id="svg2"
   width="640"
   height="640"
   viewBox="0 0 640 640"
   sodipodi:docname="email.svg"
   inkscape:version="0.92.3 (2405546, 2018-03-11)">
  <metadata
     id="metadata8">
    <rdf:RDF>
      <cc:Work
         rdf:about="">
        <dc:format>image/svg+xml</dc:format>
        <dc:type
           rdf:resource="http://purl.org/dc/dcmitype/StillImage" />
        <dc:title></dc:title>
      </cc:Work>
    </rdf:RDF>
  </metadata>
  <defs
     id="defs6" />
  <sodipodi:namedview
     pagecolor="#ffffff"
     bordercolor="#666666"
     borderopacity="1"
     objecttolerance="10"
     gridtolerance="10"
     guidetolerance="10"
     inkscape:pageopacity="0"
     inkscape:pageshadow="2"
     inkscape:window-width="1920"
     inkscape:window-height="1020"
     id="namedview4"
     showgrid="false"
     inkscape:zoom="1.0429825"
     inkscape:cx="344.67166"
     inkscape:cy="275.22601"
     inkscape:window-x="0"
     inkscape:window-y="32"
     inkscape:window-maximized="1"
     inkscape:current-layer="svg2" />
  <g
     id="g887">
    <path
       style="fill:#cf685c"
       d="M 298.72208,604.88974 C 261.32441,602.01541 224.08735,591.38425 189.6847,573.75962 115.40624,535.70645 61.373594,466.60824 42.080554,385 33.752246,349.77183 32.223825,314.21978 37.517004,278.84891 55.936837,155.76114 150.51759,59.312056 273.17258,38.538223 c 31.9733,-5.415256 61.68154,-5.415256 93.65484,0 C 488.29792,59.11144 581.9232,153.43909 602.02477,275.5 c 11.39008,69.16294 -4.7039,142.73696 -44.18639,201.99914 -12.10649,18.17151 -20.06793,27.83779 -36.28469,44.05455 -23.90392,23.90392 -46.1214,39.82062 -76.05369,54.48521 -46.77585,22.91667 -96.59003,32.7082 -146.77792,28.85084 z m 186.8229,-163.36323 c 2.32139,-1.36042 4.47755,-3.14283 4.79147,-3.96091 0.38918,-1.01418 -16.51085,-18.34798 -53.1177,-54.48108 l -53.68848,-52.99367 -16.51514,16.23537 C 357.93181,355.25567 348.025,364.22809 345,366.26492 339.22648,370.15243 326.79102,374 320,374 c -6.25549,0 -18.76528,-3.74618 -23.76649,-7.1171 -2.60343,-1.75477 -12.50418,-10.87509 -22.00167,-20.26737 l -17.26817,-17.07688 -53.68141,53.68141 -53.6814,53.68141 1.94957,2.18589 c 4.50689,5.0532 -3.16953,4.83165 168.86171,4.8735 L 481.32428,444 Z M 194.55883,267.05884 c -26.91484,-26.91905 -49.3012,-48.71807 -49.74745,-48.44226 -0.95239,0.5886 -1.09744,182.35651 -0.15181,190.23127 l 0.64219,5.34785 49.09657,-49.09657 49.09657,-49.09657 z m 302.42586,47.75018 c 0.008,-52.63004 -0.3498,-95.91664 -0.79604,-96.19243 -0.44625,-0.27579 -22.87519,21.63515 -49.8421,48.69098 L 397.3158,316.5 l 48.94523,48.39214 c 36.74493,36.3297 49.16498,48.04513 49.82679,47 0.49262,-0.77794 0.88831,-43.61043 0.89687,-97.08312 z m -162.36644,36.41665 c 1.58496,-1.15398 36.61138,-35.85759 77.83648,-77.11914 l 74.95474,-75.02099 -4.45474,-2.02081 c -4.4092,-2.00015 -6.07181,-2.02103 -162.68449,-2.04277 -143.09542,-0.0199 -158.61429,0.1319 -162.25,1.58662 -2.21113,0.88472 -4.02024,2.12627 -4.02024,2.75901 0,1.86796 150.175,151.26768 153.96134,153.1665 7.65928,3.84108 20.44624,3.21345 26.65691,-1.30842 z"
       id="path891"
       inkscape:connector-curvature="0" />
    <path
       style="fill:#bf3120"
       d="M 298.72208,602.88974 C 241.72761,598.50923 186.60163,576.60365 142,540.6126 132.03216,532.56911 112.45768,513.44389 104.01559,503.5 70.044077,463.48514 48.617747,416.97916 39.975229,364.5 26.814014,284.58238 50.076927,200.68503 102.77876,138 146.88476,85.539089 207.41121,51.188416 275.5,39.975229 352.34134,27.320631 434.1369,48.6632 495.41072,97.355604 c 27.80949,22.099336 53.40565,51.688406 70.32774,81.298606 51.46244,90.04872 50.40402,197.92873 -2.82132,287.56667 -22.18292,37.35873 -59.04638,74.30589 -96.13819,96.35645 -51.93418,30.87415 -109.91147,44.78137 -168.05687,40.31241 z M 484.78984,444.09732 c 2.04059,-1.04648 4.78538,-3.05474 6.09954,-4.46281 2.2285,-2.38776 2.28537,-2.71887 0.8446,-4.91776 -1.81016,-2.76265 -105.08604,-104.77464 -107.36253,-106.04863 -1.18194,-0.66145 -5.43444,2.9735 -18.20679,15.56277 -9.16556,9.03418 -18.59031,17.90126 -20.94389,19.70463 -12.60854,9.66095 -33.89122,10.57372 -47.22077,2.0252 -2.475,-1.58727 -12.37018,-10.77777 -21.98928,-20.42333 C 266.39161,335.89182 257.84316,328 257.01416,328 254.99766,328 148,435.05464 148,437.07221 c 0,2.09021 3.67399,5.45571 8.00714,7.33481 3.07069,1.33162 22.92711,1.51943 164.2827,1.55384 156.12322,0.038 160.89752,-0.0161 164.5,-1.86354 z M 195.22665,367.26352 C 222.60199,339.90846 245,316.83987 245,316 c 0,-1.80153 -98.97586,-101 -100.77335,-101 -0.67466,0 -1.22887,0.45 -1.23158,1 -0.003,0.55 -0.005,45.55 -0.005,100 0,54.45 0.002,99.45 0.005,100 0.003,0.55 0.55692,1 1.23158,1 0.67466,0 23.62466,-22.38142 51,-49.73648 z M 498,315.5 c 0,-94.38587 -0.0906,-99.5 -1.76352,-99.5 -0.99496,0 -23.48865,21.74123 -51.61316,49.88659 -36.46252,36.48955 -49.61783,50.25274 -48.98648,51.25 0.47474,0.74988 22.78784,23.07591 49.58468,49.61341 32.10739,31.79666 49.41324,48.25 50.75,48.25 C 497.9959,415 498,414.799 498,315.5 Z m -165,38.75745 c 6.23057,-3.06165 156.36184,-153.15093 155.48346,-155.43996 -0.3307,-0.86177 -2.47268,-2.41075 -4.75997,-3.44218 C 479.71287,193.56677 473.88332,193.5 320,193.5 c -153.88332,0 -159.71287,0.0668 -163.72349,1.87531 -2.28729,1.03143 -4.43107,2.58508 -4.76395,3.45256 -0.43492,1.13338 20.72516,22.89359 75.1911,77.32362 85.17976,85.12361 80.57645,81.1877 94.29634,80.62488 5.22403,-0.2143 8.86558,-0.9787 12,-2.51892 z"
       id="path889"
       inkscape:connector-curvature="0" />
  </g>
</svg>
