<svg xmlns="http://www.w3.org/2000/svg" width="6720" height="1600"><path d="M3131.643 1437.95l-543.5-80.432-170.5-25.366c-2.2-.27-74.2-11.073-160-24.007l-270.5-40.643-317.5-47.542-366-53.23c-2.2.212-5.35-.154-7-.814-2.247-.9-8.902-.996-26.5-.384l-43.5 1.392-832.5 23.04-200.395 6.57c-8.42.962-9.015.904-11.148-1.1-1.866-1.753-2.112-2.662-1.436-5.288.45-1.745 1.117-123.547 1.484-270.672l1.917-268.8c3.96-4.12 3.874-9.346 4.252 258.6l.953 268.118.6 11.41 45.64-.635 118.14-2.642 498-13.548 30.594-1.086 8.094-.56.585-39.673.406-199.173-.18-159.5-9.5-.73-21.5-1.595c-11.84-.853-11.71-.867 9.715-1.02 20.71-.148 21.765-.25 22.8-2.184.597-1.115 1.437-1.8 1.867-1.544 1.5.927 22.79 2.536 47.117 3.562l171.5 7.49 143 6.977c45.173 2.626 40.448 2.604 41.047.183.29-1.177.4-19.213.24-40.082l-.288-37.94-6.5-1.174c-3.575-.646-12.8-1.483-20.5-1.86l-31-1.62-898.5-48.486-153.26-8.867c-2.068-.116-3.643-.638-3.5-1.16s.935-.85 1.76-.728 2.68-.247 4.123-.82c1.875-.743 14.433-.44 44 1.06l864.877 45.018 193 8.726c14.608-.782 23.165-2.912 254.5-63.343L3129.83 219.124c.356-.356.423-.873.147-1.147-.478-.478-14.316-3.634-45.833-10.452l-50.5-11.227c-7.15-1.693-13.675-3.457-14.5-3.92-3.89-2.18 3.557-.8 52 9.713l59.832 12.906c2.566.52 3.83.22 5.5-1.305 1.828-1.668 4.21-2.085 15.168-2.66 7.15-.375 17.69-1.33 23.424-2.12s13.124-1.436 16.423-1.436 60.484-4.943 127.076-10.984l612.875-54.117c1.42 1.42-.13 3.102-2.857 3.102-3.867 0-2.904 1.316 3.81 5.205l238.333 138.392 272.417 158.916 123 70.57c5.167 2.65 5.963 3.543 5.985 6.7.02 3.072-3.693 4.525-6.7 2.62-1.218-.77-2.456-1.403-2.75-1.403-1.003 0-.55 21.873.467 22.5.55.34 7.188 1.905 14.75 3.476l784.748 164.137c2.2.49 7.15 1.517 11 2.278l33.5 6.96 196.5 41.144 74.5 15.66 18.5 3.81 48 10.002 21.5 4.534 129 27.416 28.5 6.08 19.5 4.077c8.622 1.552 23.07 5.19 22.577 5.684-.415.415-12.925-2-27.077-5.226-7.884-1.797-17.6-3.786-36.5-7.472l-32.5-6.553-26.5-5.454-156.5-32.545-91-19.027-26-5.417-19-4.02-26.5-5.58-28.5-5.966-351.75-73.51-14-2.966c-2.338-.556-16.176-3.474-30.75-6.486l-107.5-22.42-124.5-26.103-24.5-4.974c-2.75-.476-8.15-1.607-12-2.515s-13.3-2.946-21-4.53l-232.5-48.555c-6.325-1.318-12.32-2.407-13.32-2.418-1.755-.02-1.795 4.922-1.118 137.73l.92 138.016c.12.146 5.122.688 11.118 1.205l239.4 20.053 48.5 3.986 258 21.5c2.75.277 8.375.734 12.5 1.015s14.475 1.15 23 1.934l23.5 2.005 13 1.046 11.5.97 608 50.46c7.975.61 15.625 1.322 17 1.58s8.35.916 15.5 1.46l42 3.55 34 2.96 12.5 1.128c9.298.906 11.63 1.1 15.81 1.253 1.85.072 3.045.556 2.71 1.096-.33.532-1.817.758-3.31.502s-14.412-1.383-28.71-2.506l-76-5.998-140.5-11.5-89.5-7.486-61-5.004-17.5-1.48c-2.475-.286-10.125-.957-17-1.492l-122-10.032-191-15.953-49-4.006-48-4.004-29-2.497-516-42.524v246.295l25.25-.656 53.75-1.624 523.5-16.527 66.5-1.957 61.5-1.98c4.95-.284 18.9-.764 31-1.065l210.5-6.51 605.416-19.925c8.203-.076 15.178-.295 15.5-.486s17.234-.636 37.584-.988l40.5-1.12c1.925-.264 4.098-.09 4.828.39.8.522-5.17 1.146-15 1.567l-24.828 1.12-70.5 2.943-153 5.535-84.5 3.005-157 5.457-26.5 1.07-243 8.928-223 8.504-40.5 1.51-29.5 1.064-182.5 6.902-39.5 1.56-277 10.465-108.476 5c-1.202.743-1.474 140.132-.274 140.838.413.242 8.175-.383 17.25-1.4l78-7.952c4.675-.556 17.725-1.9 29-2.986l139-13.937c4.125-.51 12.675-1.41 19-2l40.5-4.045 92.5-9.463 144.5-14.52 29-2.994 179.5-18.1 28.5-2.926c4.4-.536 17.675-1.893 29.5-3.016l29.5-3.003c4.4-.53 17.45-1.873 29-2.986l184-18.524 34-3.48 29.5-3.054 29.5-2.934 150.294-15.038 30-2.93 30.206-3.03 55.88-5.535c7.908-.818 16.008-1.44 18-1.38l3.62.1-4 .787c-2.2.433-9.175 1.28-15.5 1.88l-25 2.542-67.5 7.08-121 12.55-109.5 10.962-58 6-55.5 5.51-94 9.55-54 5.432-24 2.487-148.5 15.073-30 3-34 3.434-363.5 37c-1.65.263-5.7.688-9 .943-7.3.565-72.772 7.063-91.5 9.082l-28.5 2.906-116.76 12.42c-.42.42-.42 6.584 0 13.7l.76 12.94 6.5-.31c3.575-.17 13.925-1.176 23-2.233l261-29.473 57.5-6.56 300-33.87 353-40.054c4.4-.57 20.825-2.39 36.5-4.045l77.76-8.46c30.37-3.394 37.038-3.958 36.14-3.062-.416.416-40.483 5.382-76.902 9.532l-73.5 8.503-31 3.574-936.5 106.005c-19.24 2.03-31.514 4.207-35.236 6.253-3.165 1.74-4.092 1.864-6.06.812-1.95-1.044-32.727 2.38-192.264 21.387l-198.44 23.6-746 87.97-270.51 33.387c-4.265 1.283-7.35.742-9.058-1.59-.66-.903-.752-80.528-.27-236.362l.336-974.606c-3.293-.35-9.337 1.05-35.7 8.26l-36.802 9.862c-4.125 1.015-32.025 8.366-62 16.334l-68.5 18.143-28 7.476-1330.5 348.4-54.5 14.133-216.513 57.503c-2.197 1.358-2.858 12.503-2.925 49.336-.06 32.965-.01 33.857 1.927 34.363 1.094.286 1.738.926 1.43 1.423s-.964.652-1.46.345-1.115.474-1.375 1.734-.67 84.953-.912 185.983l-.44 183.693 5.633.634c3.098.35 7.922 1.266 10.72 2.038 8.714 2.405 40.5 7.303 314.41 48.438l345.5 51.945 339.58 50.25c.89-1.06-.472-676.916-1.367-677.81-.802-.802-3.968-.302-53.714 8.485l-63.5 11.13-130.98 24.084c-.686.686-1.183 97.41-1.52 295.42l-4.16 295.74c-1.572-1.572-1.812-40.123-2.118-339.956l-1.473-249.436c-.96-.96-3.3-.85-10.984.5-19.694 3.488-30.317 4.875-28.264 3.69 1.572-.908 3.172-1.255 24.952-5.42 13.177-2.52 13.528-2.654 17.135-6.6 3.23-3.533 4.22-4.028 8.07-4.028 2.414 0 48.03-7.174 101.365-15.943l165.83-26.065c15.927-2.13 21.763-2.188 10.948-.11-22.064 4.24-22.783 4.48-23.035 7.66-.13 1.626-.526 71.626-.882 155.556l-.648 152.598 3.257.652c1.792.358 20.864.637 42.382.62 32.818-.027 39.438-.27 41.066-1.5 1.068-.808 2.418-1.46 3-1.453 3.808.055 3.722-2.89 3.647 125.593l-.737 192.612c-.567 58.595-.458 68.797.742 69.24.774.285 16.482 2.768 34.907 5.518l69.5 10.48 348.5 52.112 125 18.94 52.5 7.995 87.858 13.487c14.46 2.11 16.05 2.54 15.1 4.076-.81 1.313-4.943.998-20.957-1.595zm38.793-14.007l271.207-31.594 57.5-6.928 11-1.387c1.925-.286 7.325-.985 12-1.553 37.97-4.618 50.582-6.393 51.095-7.193.327-.5 1.696-.65 3.043-.313s8.054-.104 14.905-.982l17.957-2.14c3.025-.298 6.175-.802 7-1.12s1.887-.488 2.36-.38 4.073-.285 8-.87 8.94-1.234 11.14-1.44 7.825-.903 12.5-1.55 10.21-1.322 12.303-1.496 5.36-.61 7.26-.966 11.216-1.54 20.697-2.63l185.24-21.496 47.5-5.36 97.5-11.122 70-7.94 279.5-32.013 185.19-22.27c1.12-1.764.99-25.494-.143-26.194-.523-.324-6.936.087-14.25.91l-29.3 3.07-103.5 10.53-193.5 19.476c-27.568 2.675-34.978 3.563-38.15 4.572-1.732.55-4.222.732-5.533.403s-4.394-.122-6.85.46c-6.678 1.58-144.45 15.854-468.967 48.585l-111.83 12.13c-9.547 1.484-10.453 1.482-11.968-.033-1.322-1.322-1.433-2.185-.574-4.46.748-1.98.948-84.35.673-276.247l-.597-490.424-1.436-219.148c-1.083-1.9-.92-2.352 1.362-3.846 3.096-2.03 3.458-1.983 26.37 3.295l52.5 11.688 104.935 24.048c4.98 2.08 9.533 1.84 12.177-.642 2.16-2.03 2.415-2.048 7.064-.526 4.514 1.478 125.476 30.256 146.324 34.812 5.225 1.142 10.4 2.447 11.5 2.9 3.64 1.5 9.8 2.852 10.635 2.334.453-.28 1.68-.05 2.73.51s9.495 2.588 18.77 4.505l52.865 11.054 61.384 12.895c15.315 3.3 16.58 3.43 19.36 1.992 2.852-1.475 3.092-1.426 5.8 1.167 2.343 2.244 5.177 3.188 16.64 5.543l49.456 10.46c.93.295 2.003.035 2.383-.58.72-1.165 1.383-15.12 1.443-30.382.06-14.84.752-9.254 1.41 11.366.342 10.697.985 19.813 1.43 20.257s10.458 2.807 22.25 5.25l28.102 5.852c6.274 1.328 6.84 1.294 9.807-.584 2.64-1.672 3.563-1.804 5.72-.82 1.415.645 8.477 2.478 15.693 4.073L4379 509.772c.903.775 9.517 3.05 19.142 5.054l55.5 11.635 40.5 8.42 62.427 12.502c.228-.228.53-5.783.67-12.345l.256-11.932-4.927-3.355c-2.71-1.846-28.55-17.233-57.426-34.194l-359.5-210.612-214.062-126.6c-2.017-1.824-3.688-1.71-76.5 5.165l-545.438 50.498-145.913 14.125c-2.666.81-.565 1.868 6.413 3.227l12 2.5 28 6.075 87 19.132c3.575.883 8.75 2.05 11.5 2.593 5.817 1.15 9.227 2.727 5.998 2.776-2 .03-39.002-7.424-51.87-10.453-3.78-.9-13.005-2.893-20.5-4.452l-49.126-10.576-20.842-4.604c-4.588-1.082-9.988-2.06-12-2.176l-3.658-.21.215 46.5.664 600.305 1.003 555.25c.71 1.847 4.106 1.833 21.9-.09zm1002.96-1001.966c.01-2.2.216-2.982.455-1.738s.23 3.044-.02 4-.446-.062-.435-2.262zm-1760.958 723.75l-.907-189.066-.578-8.316-11.155.553c-6.135.304-24.88.82-41.655 1.147s-30.807.895-31.18 1.263-.788 81.894-.92 181.17l1.68 180.9c1.785.373 81.635 12.713 83.98 12.98.747.085.965-53.47.732-180.63zm1756.495 123.628c.32-1.69-42.23-159.246-43.718-161.878-.757-1.34-6.48-1.925-7.625-.78-.226.226.944 5.106 2.6 10.845l31.054 112.32 11.52 40.807c.928 1.5 5.837.457 6.172-1.313zm25.7-.862l322-32.527 25.5-2.512c6.325-.58 12.065-1.248 12.757-1.486.996-.344 1.203-15.1 1-71.213l-.257-70.78-14 .283-40 1.248-256.246 9.58c-13.067.408-21.8 1.092-22.684 1.777-1.23.95-11.004 36.286-32.953 119.113-7.755 29.265-11.68 45.9-11.152 47.272.34.884 1.59 1.15 3.77.803 1.795-.287 7.313-.988 12.263-1.56zm-3224.5-100l130.5-3.467 112.5-3.308 13.5-.743.714-10.695c.393-5.882.843-90.165 1-187.294L1226.643 786c-1.1-.213-17.525-.88-36.5-1.482l-225-8.515c-31.25-1.282-52.434-1.802-64.4-1.58l-2.9.054.715 197.184 1.298 198.127c.356.577 8.022.684 19.695.276l50.612-1.57zm307-8.685c11.838-.462 17.134-1.055 18.743-2.1l2.243-1.455-.014-183.64-.743-184.76c-.492-.754-10.228-1.356-29.9-1.848l-31-.88c-2.105-.175-2.035-10.813-1.54 235.787l1.483 139.4c.986 1.188 3.297 1.333 12.716.8l28.01-1.296zm2516-47.337l288.5-9.107c33.266-1.152 31.41-1.137 37.133-.304 5.025.732 5.765-.2 4.12-5.246-1.014-3.105-1.796-3.902-4.092-4.165-1.702-.195-3.625.387-4.803 1.453-1.674 1.515-4.213 1.813-17.162 2.012l-99.197 2.947c-14.85.32-29.152.936-31.78 1.368-3.987.654-5.192.46-7.25-1.158-1.438-1.13-2.47-2.976-2.47-4.42 0-1.362-6.272-25.518-13.937-53.677l-54.083-199.67-18.562-68.163c-.68-1.1-6.253-1.753-32.918-3.86l-71.5-5.965c-4.675-.482-8.857-.536-9.292-.118s-.66 78.697-.5 173.954l1.792 174.142c1.845 1.166.264 1.167 36-.025zm471-14.47l104-4.04 182-6.73c5.387-.25 5.5-.318 5.5-3.256v-3l-6.5.053c-7.563.06-53.888 1.384-68.5 1.956l-91 2.984-136.253 4.12c-19.146.486-27.548 1.047-28.244 1.886-.545.656-1.274 2.613-1.622 4.348-.528 2.642-.326 3.154 1.244 3.154 1.03 0 18.75-.664 39.375-1.474zm-143.59-6.38c.3-.47-10.5-41.757-23.98-91.75l-57.06-211.84-3.258-.667c-2.225-.455-3.413-.265-3.745.6-.43 1.123 15.343 60.535 60.27 227.01l21.54 75.75c.92 1.795 5.29 2.424 6.234.897zm140.59-4.12l240.5-7.66 53.65-2.253c.964-.91 2.042-244.407 1.087-245.83-.448-.67-3.272-1.47-6.276-1.78-7.83-.807-114.582-9.604-139.462-11.492l-23.5-2.006c-24.31-2.36-86.198-7.142-86.645-6.694-.555.555-4.435 14.922-44.912 166.3l-29.443 111.25c0 1.387 1.324 1.393 35 .166zm347-2.55l91-3.5 53.5-1.983 302.5-11.51c4.675-.278 21.55-.96 37.5-1.517l129.5-5.68c.728-.766-106.086 1.906-167 4.178l-33 1.07-62 1.956-30 1.02-83.5 2.497-95.5 3.028-42 1.444-37 1.045-29.5.978c-3.85.234-19.15.747-34 1.14l-29.5.91c-1.375.11-5.327.256-8.78.328-6.53.134-8.148 1.266-6.806 4.762.555 1.448 2.243 1.56 14.857.995l29.73-1.15zm627-24.478c2.23-.714 2.097-.812-1.25-.9-2.062-.055-3.75.35-3.75.9 0 1.145 1.425 1.145 5 0zm11.768-.714c-1.503-.23-4.203-.233-6-.01s-.568.41 2.732.415 4.77-.177 3.268-.405zM4556.896 688.6l-.253-137.625-9-2.123c-4.95-1.167-14.85-3.327-22-4.8l-24.5-5.095-119.213-24.895c-3.284-.73.874-15.09-37.177 128.413l-31.557 118.442c-6.638 24.718-11.728 45.238-11.31 45.6s10.433 1.405 22.258 2.316l87.5 7.128 129 10.887c8.55.737 14.488.85 15.253.292.997-.73 1.202-29.154 1-138.54zm-518.753 95.12c0-1.155-9.487-35.558-12.614-45.744-1.56-5.08-2.815-11.614-2.883-15-.105-5.292-1.222-10.3-6.913-31l-21.6-80.5-24.688-97.635c.323-.323 1.426 3.27 7.337 23.885l2.776 9.5c1.817 6.104 14.464 53.148 32.058 119.25l7.536 28 3.625 13.75c.996 3.987 2.13 7.25 2.522 7.25.9 0 .44 1.645 9.716-34l48.087-181.5c10.098-37.624 11.64-44.306 10.48-45.453-.827-.817-15.913-4.15-68.436-15.123l-21-4.43-49-10.02c-4.675-.88-9.85-1.995-11.5-2.477-6.597-1.927-10.5-2.264-10.5-.907 0 .722 4.92 19.334 10.933 41.36l64.11 237.548L4031.5 783.7c1.51.97 6.644.976 6.644.01zM3967.8 509.8c-.367-.367-.667-1.132-.667-1.7 0-.626.466-.567 1.183.15.65.65.95 1.416.667 1.7s-.817.216-1.183-.15zm-100.004 257.73c-.323-1.614-12.34-46.502-26.703-99.75l-41.104-152.814c-29.75-111.15-34.875-128.907-37.633-130.378-.947-.505-3.072-1.077-4.722-1.27l-3-.352.375 188.5 1.096 189.296c.396.438 11.927 1.7 25.624 2.828l51.404 4.326 30.875 2.422c4.327.127 4.368.096 3.788-2.808zM4171.7 470.69c-.564-.564-8.623-2.447-27.047-6.32-30.8-6.473-38.722-8.006-39.15-7.58-.545.545 2.135 11.283 13.65 54.685l45 170.5c8.322 32.063 7.468 42.187 7.754-91.913l-.207-119.374zm10.773 207.787l24.164-92 26.17-102.462c-.542-1.414-4.355-2.35-34.865-8.563-11.392-2.32-21.292-3.995-22-3.724-1.042.4-1.233 22.48-1.002 115.872l1.152 113.877c.477-.825 3.35-11.175 6.383-23zm1536.18 454c.34-.55 2.054-.968 3.81-.93 2.7.06 2.877.205 1.19.93-2.79 1.2-5.74 1.2-5 0zm10.77-1.693c.973-.254 2.323-.237 3 .037s-.12.48-1.77.46-2.204-.245-1.23-.5zm10.23-1.307c2.79-1.2 5.74-1.2 5 0-.34.55-2.054.968-3.81.93-2.7-.06-2.877-.206-1.19-.93zm8.313-.683c.722-.29 1.584-.253 1.917.08s-.258.568-1.312.525c-1.165-.048-1.402-.285-.604-.604zm-3807.813-12.308l-143.5-9.574-63-4.442-124-8.488-161.5-10.966-111.746-6.86c-10.23-.207-11.45-.434-13.5-2.512l-2.254-2.286 5.812-5.053-.662-57.164-.743-107.614c-.076-47.03.038-50.536 1.677-51.734 1.077-.788 3.144-1.065 5.337-.717 5.246.833 11.322.104 280.08-33.616l316-39.47c50.53-6.2 70.386-9.01 72.747-10.254 3.12-1.645 3.317-1.634 5.036.264 1.71 1.887 1.756 8.932 1.054 157.976l-1.036 176-.3 20-3.5.152c-1.925.084-29.825-1.555-62-3.643zm60.276-110.26l-1.8-233.587c-.574-.522-10.85.454-24.975 2.373l-640 82.964-.876 104.79-.474 105.192c.703.703 33.77 3.39 86.35 7.014l158 10.985 418.527 29.397 5.527.12zm-39.377 84.5c1.7-3.07 25.005-25.68 25.727-24.958.688.688-3.72 5.558-17.612 19.458-7.033 7.036-10.126 9.132-8.114 5.5zm-38.9-10.353c0-1.385 51.255-53.35 54.25-55.002 4.8-2.648-.216 3.034-22.5 25.48-26.22 26.41-31.75 31.554-31.75 29.52zm-43.143-11.63c1.14-2.132 71.93-73.657 79.92-80.75 2.352-2.088 4.566-3.507 4.92-3.154.685.685-75.517 77.655-82.085 82.913-3.125 2.502-3.666 2.697-2.754.993zm-35.18-11.77c6.6-7.646 107.64-108.497 108.7-108.497 1.904 0-8.205 10.498-56.037 58.2-50.81 50.66-63.124 62.425-52.662 50.307zm-35.677-12.53c0-1.353 129.14-130.46 135-134.968 4.056-3.12 3.792-2.672-2.67 4.52-8.592 9.56-130.663 131.48-131.644 131.48-.376 0-.685-.465-.685-1.033zm-37.17-12.482c5.244-6.276 161.093-162.243 166.67-166.796 4.922-4.018 4.953-4.028 2.022-.635-4.942 5.72-162.258 163.138-167.322 167.43l-4.7 3.985zm-96.79-4.485c4.335-5.768 165.65-167.165 172.96-173.05 5.32-4.282 5.232-4.132-2.686 4.562-8.18 8.98-156.535 157.13-167.736 167.504l-5.922 5.484zm-47.364-10.505c10.366-11.406 160.662-161.495 161.718-161.495.432 0-.414 1.462-1.88 3.25-4.312 5.258-155.442 156.467-162.012 162.098-5.98 5.125-5.974 5.112 2.174-3.853zm106.124-2.245c13.417-14.648 167.208-167.577 167.862-166.922.336.336-3.008 4.563-7.432 9.392-13.197 14.407-165.958 166.28-167.252 166.28-.657 0 2.413-3.937 6.82-8.75zm-241.122 3.25c5.32-6.368 142.645-143.5 143.703-143.5.434 0-.573 1.72-2.24 3.823-3.628 4.58-137.12 137.804-142.14 141.854l-3.5 2.824zm43.324 3.607c0-.6 30.747-31.807 68.327-69.35l86.348-84.417c.696.696-138.39 140.63-148.925 149.834-3.162 2.762-5.75 4.532-5.75 3.932zm-116.178-8.857c8.118-9.1 131.568-132.25 132.56-132.25 2.016 0-9.84 12.306-65.792 68.284l-72.176 70.716c-.342 0 2.09-3.038 5.406-6.75zm31.312 2.86c7.467-8.628 138.923-139.387 139.525-138.785.356.356-1.333 2.844-3.755 5.527-9.996 11.075-136.76 137.147-137.898 137.147-.68 0 .277-1.75 2.13-3.9zm130.74 2.15c1.364-2.438 153.736-154.79 158.626-158.607 3.475-2.712 3.2-2.206-2.174 3.862-7.702 8.712-155.66 156.483-156.68 156.483-.4 0-.307-.782.228-1.74zm-197.396-8.333c7.012-7.806 115.762-116.824 122.94-123.243 4.443-3.973 6.443-5.297 5.6-3.703-1.696 3.17-122 123.45-128.008 127.98l-4.5 3.394zm-6.478-24.553c0-1.078 103.01-104.242 105.4-105.56 4.637-2.555-4.696 7.25-50.087 52.625-44.887 44.87-55.313 54.847-55.313 52.934zm-2.187-31.125c8.305-9.53 77.8-78.25 79.145-78.25.682 0-1.016 2.587-3.773 5.75-8.106 9.298-77.888 78.25-79.19 78.25-.655 0 1.063-2.587 3.82-5.75zm-12.958-20.924c1.224-2.22 57.434-58.326 58.435-58.326.4 0 .71.4.71.9 0 1.144-55.834 56.95-58.297 58.27-1.602.857-1.717.744-.848-.833zm-11.004-33.076c3.2-4.428 32.678-33.25 34.007-33.25 2.353 0-.682 3.496-17.146 19.75-15.264 15.07-21.745 20.26-16.86 13.5zm-5.85-23.134c0-1.536 15.477-16.184 15.866-15.017.374 1.124-13.65 15.9-15.09 15.9-.426 0-.775-.398-.775-.884zM6016.51 1085.26c-.266-.43 1.567-.784 4.075-.784s4.56.178 4.56.395c0 .785-8.162 1.152-8.634.39zm13.903-1.477c.973-.254 2.323-.237 3 .037s-.12.48-1.77.46-2.204-.245-1.23-.5zm-3003.77-33.307c-.368-.596-6.78-1-15.872-1-8.4 0-41.1-.67-72.69-1.49l-154.022-2.958c-.483.298-3.473.09-6.646-.464-3.257-.568-22.968-.983-45.27-.953-62.912.086-99.13-.2-150.5-1.188l-72.73-.935-24.73-.012-.522-2.25c-.287-1.237-.89-24.525-1.338-51.75-.8-48.508-.777-49.545 1.163-51.734 1.962-2.216 1.973-3.737 1.24-178.5L2483.53 548.1c-.508-36.888-.393-37.624 5.888-37.624 1.776 0 13.128-2.042 25.227-4.538l139.657-28.445c16.65-3.286 30.766-6.578 32.183-7.506 2.048-1.342 2.94-1.43 4.737-.47 2.845 1.522 5.82 1.11 32.42-4.507l37.5-7.738c9.422-1.88 16.284-3.77 17.5-4.816 1.125-.968 4.615-2.013 7.975-2.387 3.287-.366 19.037-3.55 35-7.075l174.525-37.967c14.575-3.06 27.96-6.306 29.745-7.213 2.383-1.2 3.83-1.39 5.44-.67l2.196.98-.197 78.425c-.213 84.798-.888 118.737-2.396 120.632-.606.762-.937 61.233-.895 163.9l1.75 164.552c1.555 1.718 1.632 6.453 1.005 61.945-.424 37.585-1.06 60.798-1.698 61.99-1.098 2.05-3.446 2.53-4.45.906zm-1.4-61.754l-.92-56.442c-.375-.383-13.956-.247-30.18.303l-117.288 3.284-88.67 3.197c-.485.502-1.014 22.51-1.174 48.904l-.292 47.992 4.962.67c2.73.37 20.937 1.168 40.462 1.775l173.5 5.894 19.42.44c.23-.148.312-25.356.18-56.017zm-28.1 42.798c0-1.312 18.707-20.044 20.017-20.044 1.982 0-.732 3.393-9.8 12.25-8.83 8.623-10.217 9.682-10.217 7.794zm-41-11.894c0-1.34 40.542-42.15 41.874-42.15.62 0 1.126.312 1.126.693 0 .972-39.11 40.24-41.25 41.415-1.035.57-1.75.586-1.75.042zm-89-6.054c0-.572 7.762-8.816 17.25-18.32 22.793-22.834 29.63-29.228 30.417-28.44.692.692-40.242 42.448-44.917 45.82-1.512 1.09-2.75 1.515-2.75.943zm46.76-1.73c2.463-3.423 48.8-49.716 50.234-50.198.553-.184 1.005.02 1.005.453 0 1.077-49.025 50.26-51.4 51.565-1.77.974-1.76.85.16-1.82zm-96.76-1.327c0-.53 9.172-10.09 20.383-21.25 30.88-30.738 33.508-33.23 34.242-32.497.7.7-52.41 54.708-53.818 54.708-.444 0-.807-.433-.807-.96zm-13-32.077c0-1.255 19.742-21.686 22.336-23.113 4.9-2.698 1.996 1.29-8.87 12.185-11.547 11.577-13.466 13.135-13.466 10.928zm-11-25.06c0-1.707 9.406-10.184 9.843-8.87.392 1.175-7.593 9.97-9.052 9.97-.436 0-.792-.495-.792-1.1zm-14.723 85.423c1.17-2.35 1.327-10.94.94-51.04l-.466-48.216-2.585-1.693c-2.38-1.56-5.672-1.62-41.625-.763-21.472.512-39.604 1.286-40.29 1.72-.964.608-1.27 9.997-1.344 40.98l-.752 49.535c-.414 5.88-.287 9.587.344 10 1.045.684 24.39 1.427 62.188 1.98l22.186.325zm-92.13-1.348c-.194-.812-.644-23.3-1-49.976l-.648-48.5-6 .23c-5.567.212-41.74 1.017-145.216 3.23l-42.208 1.495c-1.235.763-1.453 88.195-.222 88.956.467.29 17.453.986 37.748 1.55l133.9 3.986c23.928.935 24.1.928 23.648-.97zm-21.148-10.5c0-.933 8.23-9.478 9.127-9.478 1.883 0 .696 2.412-3 6.118-3.427 3.427-6.118 4.905-6.118 3.36zM2540 1011.726c2.545-3.512 48.494-49.25 49.477-49.25 1.956 0-3.085 5.512-25.445 27.823-22.542 22.492-28.935 28.192-24.032 21.427zm88.305.65c2.104-3.18 32.706-33.758 35.026-35 .996-.533 1.812-.645 1.812-.25 0 1.054-34.15 35.308-36.463 36.574-1.876 1.027-1.893.97-.375-1.325zm-39.162-2.808c0-1.263 42.786-44.09 44.047-44.09.524 0 .953.313.953.695 0 .973-41.106 42.232-43.25 43.412-1.13.622-1.75.616-1.75-.016zm-80-7.183c0-1.314 30.984-33 35.308-36.11 7.23-5.196 2.49.69-13.907 17.268-17.732 17.93-21.4 21.16-21.4 18.84zm-4.11-38.7c1.292-2.415 10.76-11.208 12.07-11.208 1.83 0 1.166 1.02-4.61 7.074-5.512 5.78-9.532 8.006-7.46 4.134zm125.61-29.843c29.7-.352 54.788-1.043 55.75-1.537 1.654-.85 1.75-8.645 1.75-142.395l-1.315-142c-.723-.278-32.56 4.26-70.75 10.086l-92.798 14.085-29 4.774-5.637 1.28-.257 127.42.28 128.833c.458 1.2 7.09 1.313 44.257.75l97.72-1.3zm126.5.032c14.067-.495 16.98-.874 19.75-2.57l3.25-2 .032-39.668-.886-255.423c-.788-.79-83.077 10.523-86.718 11.92-1.42.545-1.696 46.695-1.445 242.3l.055 42.456 4.462 4.763 22.5-.6 39-1.178zm111.5-4.42l103.792-1.907c37.9-.656 52.183-1.22 53.25-2.106 1.266-1.05 1.458-22.603 1.458-164.028l-.75-163.268c-.413-.248-7.5.645-15.75 1.982l-189.5 29.32c-11.275 1.71-24.325 3.89-29 4.847l-8.5 1.74-.253 145.865.873 147.22c1.395 1.68 12.817 1.726 84.38.334zm-297.58-271.45l93.08-13.038 20.86-3.038c1.14-.397 1.245-13.682.644-82.212l-1.36-82.352c-.354-.337-14.368 2.423-31.143 6.135l-80.5 17.463-80.132 17.813c-.328.33-.717 11.983-.864 25.9l-.6 123.052c.17 1.487 7.53.593 80.007-9.723zm69.08-28.2c0-.96 28.25-29.328 29.205-29.328 2.505 0-.694 3.854-13.454 16.206-13.202 12.78-15.75 14.904-15.75 13.122zm-103-5.98c0-.974 94.215-95.42 100.404-100.65 12.54-10.597-.987 3.736-46.883 49.674-45.044 45.085-53.52 53.158-53.52 50.976zm51-2.41c0-1.33 54.077-56.18 60.25-61.11 2.098-1.677 3.75-2.44 3.75-1.736 0 1.344-53.934 56.013-60.25 61.072-2.062 1.652-3.75 2.45-3.75 1.775zm-63.296-30.376c1.3-2.304 64.2-65.327 67.754-67.875l2.958-2.12-1.726 2.467c-2.4 3.43-65.766 66.876-68.04 68.126-1.544.85-1.7.75-.947-.597zm-11.933-27.198c2.584-3.573 38.58-39.366 39.6-39.366 1.717 0-2.037 4.184-19.454 21.686-18.11 18.2-24.687 23.973-20.136 17.68zm-10.77-22.947c0-1.182 7.405-9.57 10.213-11.57 5.4-3.845 4.21-.83-2.24 5.68-5.856 5.91-7.973 7.473-7.973 5.89zm206 100.095l39.5-5.633c16.5-2.317 30.622-4.692 31.38-5.278 1.08-.833 1.246-3.03.762-10.083-.34-4.96-.65-43.234-.69-85.053l-.844-77.288c-.602-.973-4.543-.474-17.692 2.24-46.86 9.673-65.017 13.76-66.06 14.866-.834.886-1.27 23.845-1.6 84.453l.01 83.7c.256.256 1.65.248 3.098-.02s6.907-1.124 12.132-1.905zm108.516-18.03l207.302-30.03 2.318-.527-.24-92.933-.928-94.047c-.48-.776-11.447 1.327-36.078 6.917l-160.4 36.223-36.093 8.415-5.093 1.46-.665 45.268-.683 122.018c.06 1.356 6.26.795 30.55-2.767zm23.448-43.41c1.454-2.723 95.377-97.462 109.822-110.774 5.107-4.708 9.572-8.273 9.92-7.925.676.675-99.8 101.884-113.122 113.958-4.514 4.088-7.36 6.125-6.62 4.74zm162.035-.134c0-1.368 13.652-14.938 15.028-14.938 1.867 0-.603 3.278-7.344 9.75-6.624 6.36-7.684 7.074-7.684 5.188zm-45.167-4.612c1.294-2.4 43.978-45.154 46.342-46.42 1.004-.537 1.825-.646 1.825-.24 0 1.02-45.074 46.243-47.326 47.482-1.57.864-1.688.75-.84-.82zm-48.01-16.076c3.833-4.803 76.865-77.653 80.142-79.943l2.467-1.723-2.127 2.958c-1.17 1.627-19.1 19.833-39.846 40.458l-39.77 39.75c-3.394 3.724-4.082 2.53-.865-1.5zm-86.825-11.05c0-.515 16.762-17.708 37.25-38.205 46.488-46.51 50.597-50.48 51.412-49.666.69.69-81.117 83.363-85.912 86.823-1.512 1.092-2.75 1.563-2.75 1.048zm-9-36.144c0-1.227 40.688-42.74 46.792-47.742 2.375-1.946 4.593-3.263 4.928-2.927.665.665-47.1 49.162-49.97 50.726-1.146.627-1.75.607-1.75-.058zm-9-26.702c0-2.003 22.77-23.918 23.79-22.898.653.653-21.73 23.544-23.023 23.544-.422 0-.766-.29-.766-.646zm3439 540.646c0-.55.927-1 2.06-1s1.78.45 1.44 1-1.267 1-2.06 1-1.44-.45-1.44-1zm-246.5-76c-.34-.55.083-1 .94-1s1.56.45 1.56 1-.423 1-.94 1-1.22-.45-1.56-1zm-11-1l-3-.764 3-.048c1.65-.026 3.9.34 5 .812l2 .86-2-.048c-1.1-.026-3.35-.392-5-.812zm-14.714-.948c-4.243-.356-8.03-.963-8.418-1.35-.965-.965 14.763.36 16.632 1.402.825.46 1.05.78.5.715s-4.47-.41-8.714-.767zm-15.024-1.76c1.244-.24 3.044-.23 4 .02s-.062.446-2.262.435-2.982-.216-1.738-.455zm31.988-96.955c.688-.277 1.813-.277 2.5 0s.125.504-1.25.504-1.937-.227-1.25-.504zm-8.25-1.337l-3-.764 3-.103c1.65-.056 3.675.333 4.5.867 1.333.862 1.333.958 0 .866-.825-.057-2.85-.446-4.5-.866zm-9-2c-2.722-.693-2.77-.768-.5-.812 1.375-.026 3.4.34 4.5.812 2.466 1.06.164 1.06-4 0zm-206.75-55.663c.688-.277 1.813-.277 2.5 0s.125.504-1.25.504-1.937-.227-1.25-.504zm-6.75-1.337c-1.333-.862-1.333-.963 0-.915.825.03 2.4.442 3.5.915l2 .86-2 .055c-1.1.03-2.675-.38-3.5-.915zm-9.5-1.52l-15.5-3.383-17-3.68-14-2.952-73-15.966-97.5-21.53c-4.267-1.04-70.28-15.543-77-16.918-4.243-.868-47.233-10.406-54-11.98l-8.5-1.977-56-12.24c-2.475-.487-7.2-1.537-10.5-2.332-6.436-1.55-69.5-15.502-104-23.007l-213-47.037c-4.975-1.205-81.086-17.99-98-21.613-2.75-.59-11.3-2.553-19-4.365l-23.5-5.432c-18.97-4.27-35.07-8.33-34.66-8.74.695-.695 147.188 30.783 207.66 44.623l133.5 29.498c3.3.782 17.475 3.926 31.5 6.987l34 7.506 24.5 5.453 118 26.15c3.3.78 15.675 3.48 27.5 5.997l70 15.48 72.5 15.975c2.2.548 19.525 4.396 38.5 8.55l108 23.967 22.5 5.12 13 3 13 2.953c3.85.85 7.428 1.966 7.95 2.483 1.135 1.123.948 1.107-6.95-.582zm-4904-18.48c-.34-.55.083-1 .94-1s1.56.45 1.56 1-.423 1-.94 1-1.22-.45-1.56-1zm1172.312-83.683c.722-.29 1.584-.253 1.917.08s-.258.57-1.312.525c-1.165-.048-1.402-.285-.604-.604zm2808.188-102.317c-1.333-.862-1.333-.96 0-.885.825.046 2.625.445 4 .885l2.5.8-2.5.084c-1.375.046-3.175-.352-4-.885zm-10.187-2.683c.722-.29 1.584-.253 1.917.08s-.258.57-1.312.525c-1.165-.048-1.402-.285-.604-.604zm-1800-389c.722-.29 1.584-.253 1.917.08s-.26.57-1.312.525c-1.165-.048-1.402-.285-.604-.604z" fill="#a7a7a7"/><path d="M3141.628 1431.818c-1.15-1.15-1.447-2.454-.972-4.25.377-1.426 1.035-252.567 1.46-558.092l1.104-556c1.477-2.244 1.916 102.067 2.38 565.5l1.127 539.25.594 8.25h4.816c8.794 0 50.538-4.72 278.504-31.497l204.5-24.007 227-27.023 86.5-10.4 214.5-25.075 149-17.01 145-15.442c-4.724 1.446-276.16 33.75-1029 122.457l-278 34.028c-4.925 1.346-6.616 1.21-8.515-.7zm-186.735-22.005c.688-.277 1.813-.277 2.5 0s.125.504-1.25.504-1.937-.227-1.25-.504zm-6.48-1.03c.973-.254 2.323-.237 3 .037s-.12.48-1.77.46-2.204-.245-1.23-.5zm-45.77-5.935l-481.5-71.417c-4.125-.487-23.475-3.362-43-6.39l-741-111.062-333.162-48.52c-5.37-.015-10.077-1.63-10.156-3.485-.023-.55 1.28-1.88 2.9-2.953l2.942-1.953-.354-226.047-1.014-226.75c-1.97-2.097-26.782-3.888-115.154-8.312l-236.5-12.53-360-19.464-345.5-19.506c-36.01-3.204 92.685 2.993 436.5 21.018l439 22.995c170.36 8.98 173.078 9.076 187.62 6.538 13.354-2.332 81.55-19.874 336.38-86.532l1222-318.506 89.083-22.25c.407.406-37.285 10.758-84.583 23.23l-1557.72 408.257c-3.31.723-4.288 2.462-4.728 8.396-.22 2.952-.545 85.468-.725 183.368l-.827 222.348.038 45.216c1.385 2.234 43.855 8.875 360.962 56.436l266 39.994 391.68 57.357c1.292-1.072 1.423-2.764.804-10.316-.407-4.97-1.02-157.4-1.362-338.735l-1.62-330.64c-.63-.59-8.046.326-20 2.475l-176.5 30.957c-44.084 7.708-51.18 9.16-52.84 10.82-1.537 1.537-1.704 23.454-2.247 295.16l-1.75 294.665c-.64.64-1.215.96-1.278.714s-.45-132.525-.864-293.95l-1.437-295.5c-.504-1.467.23-3 2.75-5.75 2.967-3.238 4.033-3.75 7.81-3.75 2.405 0 43.97-6.534 92.365-14.52l158.87-24.502c.742.742.966 47.96.744 156.897l-.317 155.836 3.222.645c1.772.354 21.243.645 43.268.645 35.2 0 40.26-.192 41.803-1.6 1.217-1.102 2.263-1.307 3.404-.668 1.508.844 1.642 7.12 1.58 73.84l-.734 192.51.34 120.215c.553.342 7.262 1.556 14.908 2.698l425.402 63.98 73.5 11.398c24.666 4.2 9.156 2.58-29-3.013zm-489-120.372l-1.283-333.674c-.557-.894-10.87-.94-43.22-.2l-43.116 1.674c-.346.38-.868 82.282-1.16 182.005l.754 181.81c2.104.808 83.86 13.182 86.036 13.022 1.968-.144 2-.86 2-44.646zm1158.647 51.28c-.645-1.153-.56-2.553.262-4.25.953-1.97 1.086-23.92.6-99.03l-1.843-872.43c-.516-11.733-.374-15.213.665-16.25 1.75-1.745 1.513-1.77 16.045 1.682l63.134 14.03 100.097 22.528c1.673 1.034 2.224 78.216 2.79 391.037l2.1 341.874c1.357 1.635 3.042 1.726 21 1.127l49.024-1.63 256.5-7.848c17.62-.51 31.402-.523 31.932-.028.995.93 4.536 13.09 18.17 62.407 31.69 114.618 29.535 106.157 27.255 106.955-2.974 1.04-124.656 13.605-460.858 47.588l-119.5 12.997c-5.565 1.268-6.27 1.195-7.363-.76zm891.613-58.943c.688-.277 1.813-.277 2.5 0s.125.504-1.25.504-1.937-.227-1.25-.504zm-293.083-3.004c-.367-.366-.667-1.893-.667-3.392s-4.71-19.76-10.47-40.583l-34.592-126.306c-.523-2.446-1.396-5.82-1.938-7.5s-4.34-15.652-8.44-31.052l-74.013-274.5c-.782-2.475-2.378-8.325-3.546-13s-4.86-18.095-8.206-29.823l-6.082-21.323 2.058-3.677c1.132-2.022 5.5-16.952 9.71-33.177l43.68-165 16.836-66.55c0-3.38 1.542-5.45 4.05-5.45 2.327 0 4.954 3.22 4.96 6.08.01 2.626 2.665 12.95 26.5 102.92l28 106.106 13.21 48.345c1.43 2.556 4.182-5.538 11.198-32.95l24.13-92 26.932-104.595c.04-3.606 3.242-6.276 6.74-5.62 3.927.737 107.072 23.923 122.68 27.577 7.09 1.66 13.306 3.435 13.814 3.943.566.566.335 2.82-.596 5.8-.836 2.687-7.65 28.5-15.14 57.385l-62.407 235.5c-1.198 3.76-50.365 187.667-64.03 239.5l-14.978 55.5c-6.764 23.296-38.886 145.335-41.588 158l-2.055 9.25c-.364 1.307-4.59 1.736-5.744.583zm385.58-6.486c-.804-.804-.848-1.724-.146-3.036.96-1.793 1.65-190.08 2.1-572.81l.743-151 .58-12.5.63 13.5c.346 7.425.692 52.603.77 100.395l.604 87.646c.255.413.483 117.235.506 259.605l.9 267.854c.562 5.894.507 9.43-.16 10.25-1.276 1.568-5 1.623-6.526.097zm-4372.286-70.535c-1.27-1.575-1.38-16.578-.845-114.812l.75-255.09 2.306-167.41c.397 3.025 1.022 121.375 1.388 263l1.307 263 .64 5.5 4.496.602c5.024.672 58.142-.283 142.996-2.574l528-14.154c13.475-.354 24.993-1.03 25.595-1.503 2.04-1.6 2.404-34.218 2.445-219.033l1.358-184.754c.93-.772 4.21-.8 11.21-.128 5.44.53 20.918 1.437 34.393 2.015l171.5 7.51 120.658 6.322c.362.384.982 85.073 1.378 188.198l1.568 189.75c.684 1.815 1.673 2.276 5.122 2.383l4.275.134-5 .843c-2.75.463-11.3.842-19 .84s-24.575.45-37.5 1.003l-337.5 10.047-436.5 11.992-221.54 7.576c-1.283.35-2.58-.117-3.5-1.257zm767.04-24.276l142.5-4.1 83.824-1.856c34.35-.583 49.164-1.168 49.97-1.974 1.4-1.4 1.604-24.735 1.983-227.393l.28-149.787-2.03-.413c-1.116-.228-17.33-.903-36.03-1.5l-225-8.5c-46.095-1.857-68.068-2.26-69.07-1.27-1.16 1.148-.057 392.76 1.116 396.506.483 1.543 9.4 1.592 52.454.285zm1048.75-52.698c.688-.277 1.813-.277 2.5 0s.125.504-1.25.504-1.937-.227-1.25-.504zm-30.75-1.025l-53.5-3.363-334-22.44-140-9.512-112.527-6.483c-1.5.927-4.708-.384-5.41-2.21-.37-.96.255-2.55 1.537-3.914l2.157-2.296-.885-106.298-.094-108.048c.62-1.37 2.037-1.752 6.506-1.76 9.055-.014 26.992-2.19 279.715-33.928l376.33-45.962c6.616.403-105.01 15.49-239.33 32.348l-273.5 34.586c-126.6 15.993-140.413 17.948-142.676 20.21-1.018 1.018-1.334 22.662-1.55 106.235l-.273 104.957 4 .677c5.544.938 46.412 3.992 139 10.386l508 37.202c-4.95-.03-11.025-.206-13.5-.392zm32.884-9.562l-.75-170.347-2.07-165.826c-1.527-1.84-1.417-2.003 3.06-4.58 4.434-2.55 4.413-3.08 3.76 94.5l-.75 170.668-.743 80.25c-1.293 3.37-2.398 1.313-2.51-4.668zm1958.033-7.802c-.936-.58-15.02-51.084-42.79-153.448l-30.652-113-17.443-65c-.493-2.2-12.435-46.75-26.537-99l-41.994-156L3767.3 391.98l-2.89-8.87 2.31-2.312c1.99-1.99 2.7-2.162 5.112-1.234 1.54.593 14.05 3.714 27.8 6.937l129.25 30.53c1.4.3 2.25 1.22 2.25 2.433 0 1.073 3.113 13.102 6.92 26.73l44.592 163.78 32.463 121 14.094 51.513c.538 1.382 1.22 3.84 1.514 5.464s9.088 34.692 19.54 73.487l28.503 106.036 32.3 117.5c1.115 3.3 2.038 6.798 2.05 7.775.03 2.09-4.383 4.048-7.143 3.172-1.047-.333-13.475-.13-27.618.446l-106.03 3.38c-6.224.144-11.744 0-12.267-.326zm-964.417-51.068l-205.296-4.797c-10.346.192-12.2-.58-10.495-4.345.717-1.573.895-17.87.555-50.777l-.5-48.46-2.443-2.618c-2.26-2.42-2.32-2.74-.81-4.25 2.02-2.02.738-1.914 20.49-1.68 9.075.107 42.375-.32 74-.948l105.5-1.88c38.195-.585 48.443-1.02 50.17-2.12 1.853-1.183 2.418-1.177 3.88.037 1.595 1.324 1.664 5.45 1.017 60.44l-1.198 60.77c-.277.962-1.26 1.68-2.186 1.593s-15.633-.52-32.683-.963zm30.657-59.38l-1.08-57.78c-.406-.43-13.527-.33-29.157.22l-71.92 2.11-136.916 4.517c-.486.514-1.042 22.973-1.234 49.9l-.35 48.977 4.5.7c2.475.384 20.475 1.192 40 1.794l172 5.958 21.5.716 3-.12zm-355.157 53.838l-169.5-2.745-17-.175-.674-28.96c-.37-15.928-.476-35.26-.233-42.96s0-17.375-.546-21.5c-.918-6.973-.844-7.62 1.047-9.212 1.42-1.195 2.962-1.526 5.105-1.098 5.56 1.112 195.07-1.74 197.616-2.975 1.544-.75 2.833-.796 3.87-.142 1.363.86 1.54 5.417 1.433 36.954-.14 41.57-1.006 66.286-2.35 67.117-.518.32-1.387.137-1.93-.407-.606-.606-1.25-19.903-1.663-49.863l-.674-48.874-11.5.2-61.5 1.304-122.07 4.162c-1.062 1.073-1.365 10.2-1.5 45.176-.095 24.768.22 44.22.728 44.728.493.493 17.31 1.355 37.37 1.916l73.472 2.04 91.752 3.642c1.57.97-1.49 2.332-4.752 2.11-1.65-.112-9.075-.304-16.5-.428zm-677.73-273.03c.973-.254 2.323-.237 3 .037s-.12.48-1.77.46-2.204-.245-1.23-.498zm493.326-94.153c-1.212-1.96-1.605-19.807-1.978-89.855-.41-77.09-.616-74.3 5.467-74.3 2.998 0 7.445-.88 83.416-16.503l76.92-15.586c19.206-3.822 35.513-7.44 36.237-8.04s2.335-.837 3.58-.525l2.263.567-.29 54.787-1 87.294-.71 32.507-3.5.287c-1.925.157-19.475 2.734-39 5.725l-122 18.664-35.632 5.534c-1.723.265-3.42.015-3.773-.556zm85.325-16.627l93.08-13.038 20.905-3.055c1.2-.418 1.3-12.6.687-83.212l-1.48-83.496c-.418-.426-10.864 1.477-23.212 4.228l-136.9 29.593c-30.918 6.592-32.734 7.087-33.89 9.246-.684 1.28-1.86 145.103-1.22 149.457.242 1.653 11.387.332 82.03-9.723zm209.465-25.7c-.647-.862-1.1-32.036-1.304-87.8l-1.13-88.65c-1.032-2.715 1.56-5.375 5.24-5.375 3.022 0 17.492-2.932 51.31-10.396l166-36.064c12.1-2.503 23.475-5.3 25.278-6.218 2.326-1.183 3.588-1.357 4.347-.598 1.92 1.92.92 194.206-1.024 197.007-.663.954-17.842 3.714-132.6 21.308l-93.5 14.603c-21.886 3.735-21.488 3.696-22.614 2.194zm36.13-9.358L2972 601.54c38.013-5.453 54.644-8.213 55.3-9.18.535-.778.71-5.32.4-10.384-.303-4.95-.574-46.477-.604-92.282l-.616-84.75c-.3-.807-1.34-1.468-2.3-1.468s-20.364 4.25-43.143 9.444l-101.417 22.992-92.914 22.12c-.825.826-1.202 21.028-1.37 73.54l-.846 83.05c-.338 5.856-.308 11.144.066 11.75 1.105 1.788 7.71 1.305 33.08-2.42zm1746.81-97.55c-.637-.638-2.022-1.67-3.077-2.293s-4.355-2.757-7.334-4.74c-6.916-4.604-38.812-23.474-115.916-68.576l-277-162.314-222-131.58c0-.28 1.913.586 4.25 1.924l170.75 98.664 346.5 202 99.806 57.44c9.085 4.845 10.757 6.104 10.5 7.905-.35 2.443-4.58 3.47-6.48 1.57zm-1424.636-306.63c-3.26-.513-4.275-2.338-2.817-5.063.898-1.677 2.6-2 13.327-2.546 6.764-.344 17.698-1.112 24.3-1.708l426.5-38.444 257.5-21.514c-30.338 3.602-137.534 13.658-549 51.504l-160 16.146c-5.347 1.952-6.51 2.145-9.81 1.625zm739.07-72.005c1.244-.24 3.044-.23 4 .02s-.062.446-2.262.435-2.982-.216-1.738-.455zm12.05-.976c.722-.29 1.584-.253 1.917.08s-.26.57-1.312.525c-1.165-.048-1.402-.285-.604-.604z" fill="#5f5f5f"/><path d="M3142.572 1431.324c-.628-.865-.74-19.955-.315-53.348l1.876-655 1.867 699 .642 5 4.764.305c2.62.168 13.42-.636 24-1.788l252.062-29.057 121-13.835c3.204.185-18.82 2.922-95.826 11.91l-305.546 37.517c-2.442.442-3.85.223-4.525-.706zm410.333-49.555c1.244-.24 3.044-.23 4 .02s-.062.446-2.262.435-2.982-.216-1.738-.455zm9-1c1.244-.24 3.044-.23 4 .02s-.062.446-2.262.435-2.982-.216-1.738-.455zm9-1c1.244-.24 3.044-.23 4 .02s-.062.446-2.262.435-2.982-.216-1.738-.455zm8.507-.985c.973-.254 2.323-.237 3 .037s-.12.48-1.77.46-2.204-.245-1.23-.5zm-5.544-44.916c-1.35-1.35-.734-4.452 1.025-5.173 1.657-.68 1.723-7.242 1.244-123.718l-.946-84-.44 39-.662-51.5-1.8-748.838c-.753-19.035-.668-19.256 6.68-17.278 2.57.692 15.698 3.662 29.173 6.6l140.78 31.96c.305.305-.083.568-.862.585-1.017.022-.922.318.333 1.05 1.633.95 1.763 5.1 1.948 62.22l.802 50.2c.333-6.05.753-9.425.935-7.5s.608 143.374.948 314.33l2.618 312.338c2.158 1.627-1.453 1.663 70-.703l215-6.524c18.51-.428 25.568-.294 24.5.463-1.156.82-.513 1.068 2.81 1.08 2.37.01 4.063-.384 3.76-.87s.46-1.156 1.69-1.486c3.63-.973 13.568-.712 14.24.373.818 1.323 8.812 1.288 10.145-.045.603-.604 4.35-.92 8.862-.75l7.817.295 4.838 16.5 32.238 116.5 7.565 27.07c1.78 5.284 1.358 7.43-1.465 7.43-1.64 0-2.5-.56-2.5-1.623 0-1.378-.242-1.42-1.61-.286-1.738 1.442-28.925 4.89-38.8 4.918-2.15.01-4.498.5-5.215 1.094-.78.647-2.887.815-5.237.418-2.55-.43-4.182-.26-4.643.485-.472.764-2.315.93-5.495.492-3.227-.444-5.02-.276-5.5.517-.484.783-2.187.956-5.108.518-2.57-.385-4.382-.263-4.382.296 0 1.624-4.862 2.272-7.02.936-1.616-1-2.203-1.008-2.812-.03-1.047 1.68-7.17 2.868-7.17 1.4 0-1.678-3.696-1.36-4.362.375-.34.886-1.842 1.5-3.666 1.5-1.806 0-2.833-.416-2.472-1 .34-.55-.335-1-1.5-1s-1.848.437-1.518.97c.83 1.34-1.19 1.676-23.982 3.973l-335 34.094-113.025 12.52c-1.114.307-2.352.23-2.75-.167zm18.005-5.996c-.332-.332-1.195-.368-1.917-.08-.798.32-.56.556.604.604 1.054.043 1.645-.193 1.313-.525zm12-1c-.332-.332-1.195-.368-1.917-.08-.798.32-.56.556.604.604 1.054.043 1.645-.193 1.313-.525zm11-1c-.332-.332-1.195-.368-1.917-.08-.798.32-.56.556.604.604 1.054.043 1.645-.193 1.313-.525zm11-1c-.332-.332-1.195-.368-1.917-.08-.798.32-.56.556.604.604 1.054.043 1.645-.193 1.313-.525zm10-1c-.332-.332-1.195-.368-1.917-.08-.798.32-.56.556.604.604 1.054.043 1.645-.193 1.313-.525zm10-1c-.332-.332-1.195-.368-1.917-.08-.798.32-.56.556.604.604 1.054.043 1.645-.193 1.313-.525zm10-1c-.332-.332-1.195-.368-1.917-.08-.798.32-.56.556.604.604 1.054.043 1.645-.193 1.313-.525zm10-1c-.332-.332-1.195-.368-1.917-.08-.798.32-.56.556.604.604 1.054.043 1.645-.193 1.313-.525zm10-1c-.332-.332-1.195-.368-1.917-.08-.798.32-.56.556.604.604 1.054.043 1.645-.193 1.313-.525zm10-1c-.332-.332-1.195-.368-1.917-.08-.798.32-.56.556.604.604 1.054.043 1.645-.193 1.313-.525zm10-1c-.332-.332-1.195-.368-1.917-.08-.798.32-.56.556.604.604 1.054.043 1.645-.193 1.313-.525zm10-1c-.332-.332-1.195-.368-1.917-.08-.798.32-.56.556.604.604 1.054.043 1.645-.193 1.313-.525zm10-1c-.332-.332-1.195-.368-1.917-.08-.798.32-.56.556.604.604 1.054.043 1.645-.193 1.313-.525zm10-1c-.332-.332-1.195-.368-1.917-.08-.798.32-.56.556.604.604 1.054.043 1.645-.193 1.313-.525zm10-1c-.332-.332-1.195-.368-1.917-.08-.798.32-.56.556.604.604 1.054.043 1.645-.193 1.313-.525zm10.52-1.058c-.687-.277-1.812-.277-2.5 0s-.125.504 1.25.504 1.938-.227 1.25-.504zm10.48-.942c-.332-.332-1.195-.368-1.917-.08-.798.32-.56.556.604.604 1.054.043 1.645-.193 1.313-.525zm10-1c-.332-.332-1.195-.368-1.917-.08-.798.32-.56.556.604.604 1.054.043 1.645-.193 1.313-.525zm10-1c-.332-.332-1.195-.368-1.917-.08-.798.32-.56.556.604.604 1.054.043 1.645-.193 1.313-.525zm10-1c-.332-.332-1.195-.368-1.917-.08-.798.32-.56.556.604.604 1.054.043 1.645-.193 1.313-.525zm10.52-1.058c-.687-.277-1.812-.277-2.5 0s-.125.504 1.25.504 1.938-.227 1.25-.504zm10.48-.942c-.332-.332-1.195-.368-1.917-.08-.798.32-.56.556.604.604 1.054.043 1.645-.193 1.313-.525zm10-1c-.332-.332-1.195-.368-1.917-.08-.798.32-.56.556.604.604 1.054.043 1.645-.193 1.313-.525zm10-1c-.332-.332-1.195-.368-1.917-.08-.798.32-.56.556.604.604 1.054.043 1.645-.193 1.313-.525zm10-1c-.332-.332-1.195-.368-1.917-.08-.798.32-.56.556.604.604 1.054.043 1.645-.193 1.313-.525zm10-1c-.332-.332-1.195-.368-1.917-.08-.798.32-.56.556.604.604 1.054.043 1.645-.193 1.313-.525zm10-1c-.332-.332-1.195-.368-1.917-.08-.798.32-.56.556.604.604 1.054.043 1.645-.193 1.313-.525zm11-1c-.332-.332-1.195-.368-1.917-.08-.798.32-.56.556.604.604 1.054.043 1.645-.193 1.313-.525zm10-1c-.332-.332-1.195-.368-1.917-.08-.798.32-.56.556.604.604 1.054.043 1.645-.193 1.313-.525zm10-1c-.332-.332-1.195-.368-1.917-.08-.798.32-.56.556.604.604 1.054.043 1.645-.193 1.313-.525zm10-1c-.332-.332-1.195-.368-1.917-.08-.798.32-.56.556.604.604 1.054.043 1.645-.193 1.313-.525zm10-1c-.332-.332-1.195-.368-1.917-.08-.798.32-.56.556.604.604 1.054.043 1.645-.193 1.313-.525zm10-1c-.332-.332-1.195-.368-1.917-.08-.798.32-.56.556.604.604 1.054.043 1.645-.193 1.313-.525zm10-1c-.332-.332-1.195-.368-1.917-.08-.798.32-.56.556.604.604 1.054.043 1.645-.193 1.313-.525zm10-1c-.332-.332-1.195-.368-1.917-.08-.798.32-.56.556.604.604 1.054.043 1.645-.193 1.313-.525zm10-1c-.332-.332-1.195-.368-1.917-.08-.798.32-.56.556.604.604 1.054.043 1.645-.193 1.313-.525zm10.52-1.058c-.687-.277-1.812-.277-2.5 0s-.125.504 1.25.504 1.938-.227 1.25-.504zm10-1c-.687-.277-1.812-.277-2.5 0s-.125.504 1.25.504 1.938-.227 1.25-.504zm10-1c-.687-.277-1.812-.277-2.5 0s-.125.504 1.25.504 1.938-.227 1.25-.504zm10.48-.942c-.332-.332-1.195-.368-1.917-.08-.798.32-.56.556.604.604 1.054.043 1.645-.193 1.313-.525zm10-1c-.332-.332-1.195-.368-1.917-.08-.798.32-.56.556.604.604 1.054.043 1.645-.193 1.313-.525zm10-1c-.332-.332-1.195-.368-1.917-.08-.798.32-.56.556.604.604 1.054.043 1.645-.193 1.313-.525zm10-1c-.332-.332-1.195-.368-1.917-.08-.798.32-.56.556.604.604 1.054.043 1.645-.193 1.313-.525zm10.52-1.058c-.687-.277-1.812-.277-2.5 0s-.125.504 1.25.504 1.938-.227 1.25-.504zm10.48-.942c-.332-.332-1.195-.368-1.917-.08-.798.32-.56.556.604.604 1.054.043 1.645-.193 1.313-.525zm-267.46-165.05c-.677-.274-2.027-.29-3-.037s-.42.478 1.23.498 2.446-.187 1.77-.46zm23.48-1.034c-.962-.25-2.538-.25-3.5 0s-.175.458 1.75.458 2.712-.206 1.75-.458zm30.012-.998c-.956-.25-2.756-.26-4-.02s-.462.444 1.738.455 3.218-.185 2.262-.435zm29-1c-.956-.25-2.756-.26-4-.02s-.462.444 1.738.455 3.218-.185 2.262-.435zm258.165-4.69c-.64-2.542-1.484-4.622-1.875-4.622s-.025 2.237.814 4.972c1.892 6.164 2.64 5.917 1.062-.35zm-232.176 3.69c-.962-.25-2.538-.25-3.5 0s-.175.458 1.75.458 2.712-.206 1.75-.458zm27.012-.998c-.956-.25-2.756-.26-4-.02s-.462.444 1.738.455 3.218-.185 2.262-.435zm28-1c-.956-.25-2.756-.26-4-.02s-.462.444 1.738.455 3.218-.185 2.262-.435zm27.488-1.02c-1.238-.24-3.262-.24-4.5 0s-.225.433 2.25.433 3.488-.195 2.25-.433zm28-1c-1.238-.24-3.262-.24-4.5 0s-.225.433 2.25.433 3.488-.195 2.25-.433zm28-1c-1.238-.24-3.262-.24-4.5 0s-.225.433 2.25.433 3.488-.195 2.25-.433zm25.512-.98c-.956-.25-2.756-.26-4-.02s-.462.444 1.738.455 3.218-.185 2.262-.435zM3750.43 945.234l-.37-140.31c-.554-.343-.917 55.1-.917 140.16l.37 140.31c.203-.23.616-63.3.917-140.16zm-174.58 115.992c-.24-1.238-.433-.225-.433 2.25s.195 3.487.433 2.25.238-3.263 0-4.5zm-.023-14.937c-.32-.798-.556-.56-.604.604-.043 1.054.193 1.645.525 1.313s.368-1.195.08-1.917zm1.167-665.062l-.15-20.25-.86 19c-.804 17.766-.695 21.5.63 21.5.292 0 .464-9.113.38-20.25zM2414.602 1329.4c-.363-.587-.42-1.307-.125-1.6.716-.716 2.667.546 2.667 1.726 0 1.278-1.726 1.192-2.54-.125zm.196-79.676c-.365-16.917-.677-91.33-.694-165.364l-1.246-136.187c-1.094-1.423-5.426-1.483-43.715-.603l-43.75 1.405c-.99.34-1.284 23.796-1.412 112.2l-.888 102.28c-.4-5.225-.827-120.875-.95-257l-.862-261.88c-.5-11.3-.36-14.485.656-14.874.71-.272 1.606-.18 2 .202s.54 70.808.352 156.5l1.01 156.677c.745.48 20.348 1.01 43.563 1.174 37.385.266 42.49.117 44.657-1.304 1.58-1.036 2.675-1.24 3.086-.573 1.19 1.928.272 336.326-.93 337.835-.113.142-.503-13.583-.868-30.5zm1756.345 18.247c0-2 .472-4.517 1.048-5.593.77-1.437.703-2.306-.25-3.267-.714-.72-5.103-15.825-9.753-33.567-4.75-18.118-8.72-31.5-9.062-30.528-.622 1.773-3.43-7.65-18.186-61.05l-11.9-43.99-84.497-313.51-9.04-32.475c-4.497-15.583-5.283-19.4-4.395-21.348.664-1.458 1.64-2.16 2.526-1.818 1.745.67 2.087.16 2.916-4.358l.642-3.5-2.967 6 .57-3c1.052-5.53 9.408-38.75 16.35-65l42.497-160c3.1-11.55 6.446-24.8 7.414-29.446 1.78-8.54 3.835-11.706 6.118-9.424.597.597 1.734 4.185 2.526 7.973s5.695 22.864 10.896 42.392l51.1 194.223c2.568 10.295 5.263 19.52 5.988 20.5 1.203 1.627 1.465 1.433 3.007-2.218.928-2.2 5.198-17.725 9.488-34.5l24.47-93.5 26.664-103.398c.572-4.3 2.85-4.72 12.504-2.304 4.848 1.214 29.064 6.676 53.814 12.138 67.443 14.884 74.5 16.61 74.5 18.21 0 .587-.74.785-1.642.438-1.245-.478-1.386-.322-.585.643.767.925-2.876 15.746-13.33 54.218-9.094 33.472-14.182 53.885-13.833 55.5.38 1.763.26 2.142-.4 1.222-.683-.967-1.255-.088-2.08 3.193-1.317 5.23-1.377 7.02-.14 4.14l.86-2v2c0 1.1-.387 2.9-.86 4l-.86 2-.28-4-.86 2c-.473 1.1-.884 2.675-.915 3.5-.05 1.333.053 1.333.915 0 .533-.825.976-1.08.985-.563.025 1.54-42.457 163.22-44.947 171.063-.77 2.424-61.13 228.06-73.032 273l-4.95 18.5-37.598 141.5c-6.483 25.686-7.557 29.037-9.39 29.32-1.77.274-2.068-.204-2.068-3.315zm-18.317-77.69c-.32-.798-.556-.56-.604.604-.043 1.054.193 1.645.525 1.313s.368-1.195.08-1.917zm-1.767-7.23c-.645-2.562-1.403-4.43-1.683-4.15s.065 2.56.767 5.067c1.662 5.934 2.444 5.15.917-.917zm45.767-8.77c-.32-.798-.556-.56-.604.604-.043 1.054.193 1.645.525 1.313s.368-1.195.08-1.917zm-49-3c-.32-.798-.556-.56-.604.604-.043 1.054.193 1.645.525 1.313s.368-1.195.08-1.917zm-1-4c-.32-.798-.556-.56-.604.604-.043 1.054.193 1.645.525 1.313s.368-1.195.08-1.917zm-1.254-5.24c-.368-1.465-.862-2.472-1.098-2.236s-.127 1.627.24 3.093.862 2.472 1.098 2.236.127-1.628-.24-3.093zm-2.746-9.76c-.32-.798-.556-.56-.604.604-.043 1.054.193 1.645.525 1.313s.368-1.195.08-1.917zm-1-4c-.32-.798-.556-.56-.604.604-.043 1.054.193 1.645.525 1.313s.368-1.195.08-1.917zm62 0c-.32-.798-.556-.56-.604.604-.043 1.054.193 1.645.525 1.313s.368-1.195.08-1.917zm-63-4c-.32-.798-.556-.56-.604.604-.043 1.054.193 1.645.525 1.313s.368-1.195.08-1.917zm-4-15c-.32-.798-.556-.56-.604.604-.043 1.054.193 1.645.525 1.313s.368-1.195.08-1.917zm74-7c-.32-.798-.556-.56-.604.604-.043 1.054.193 1.645.525 1.313s.368-1.195.08-1.917zm-78-8c-.32-.798-.556-.56-.604.604-.043 1.054.193 1.645.525 1.313s.368-1.195.08-1.917zm-4-15c-.32-.798-.556-.56-.604.604-.043 1.054.193 1.645.525 1.313s.368-1.195.08-1.917zm-4-15c-.32-.798-.556-.56-.604.604-.043 1.054.193 1.645.525 1.313s.368-1.195.08-1.917zm-4-15c-.32-.798-.556-.56-.604.604-.043 1.054.193 1.645.525 1.313s.368-1.195.08-1.917zm-4-15c-.32-.798-.556-.56-.604.604-.043 1.054.193 1.645.525 1.313s.368-1.195.08-1.917zm115-10c-.32-.798-.556-.56-.604.604-.043 1.054.193 1.645.525 1.313s.368-1.195.08-1.917zm-119-5c-.32-.798-.556-.56-.604.604-.043 1.054.193 1.645.525 1.313s.368-1.195.08-1.917zm122-6c-.32-.798-.556-.56-.604.604-.043 1.054.193 1.645.525 1.313s.368-1.195.08-1.917zm-126-9c-.32-.798-.556-.56-.604.604-.043 1.054.193 1.645.525 1.313s.368-1.195.08-1.917zm-4-15c-.32-.798-.556-.56-.604.604-.043 1.054.193 1.645.525 1.313s.368-1.195.08-1.917zm140-13c-.32-.798-.556-.56-.604.604-.043 1.054.193 1.645.525 1.313s.368-1.195.08-1.917zm-144-2c-.32-.798-.556-.56-.604.604-.043 1.054.193 1.645.525 1.313s.368-1.195.08-1.917zm-4-15c-.32-.798-.556-.56-.604.604-.043 1.054.193 1.645.525 1.313s.368-1.195.08-1.917zm155-9c-.32-.798-.556-.56-.604.604-.043 1.054.193 1.645.525 1.313s.368-1.195.08-1.917zm-159-6c-.32-.798-.556-.56-.604.604-.043 1.054.193 1.645.525 1.313s.368-1.195.08-1.917zm162-5c-.32-.798-.556-.56-.604.604-.043 1.054.193 1.645.525 1.313s.368-1.195.08-1.917zm-166-10c-.32-.798-.556-.56-.604.604-.043 1.054.193 1.645.525 1.313s.368-1.195.08-1.917zm169-1c-.32-.798-.556-.56-.604.604-.043 1.054.193 1.645.525 1.313s.368-1.195.08-1.917zm4-15c-.32-.798-.556-.56-.604.604-.043 1.054.193 1.645.525 1.313s.368-1.195.08-1.917zm3-11c-.32-.798-.556-.56-.604.604-.043 1.054.193 1.645.525 1.313s.368-1.195.08-1.917zm-189-22c-.32-.798-.556-.56-.604.604-.043 1.054.193 1.645.525 1.313s.368-1.195.08-1.917zm196-4c-.32-.798-.556-.56-.604.604-.043 1.054.193 1.645.525 1.313s.368-1.195.08-1.917zm3-11c-.32-.798-.556-.56-.604.604-.043 1.054.193 1.645.525 1.313s.368-1.195.08-1.917zm5.176-17.812c0-.946-.318-.76-.86.5-.473 1.1-.86 2.675-.86 3.5 0 .945.318.76.86-.5.473-1.1.86-2.675.86-3.5zm-213.176-1.187c-.32-.798-.556-.56-.604.604-.043 1.054.193 1.645.525 1.313s.368-1.195.08-1.917zm215-7c-.32-.798-.556-.56-.604.604-.043 1.054.193 1.645.525 1.313s.368-1.195.08-1.917zm3-11c-.32-.798-.556-.56-.604.604-.043 1.054.193 1.645.525 1.313s.368-1.195.08-1.917zm4-15c-.32-.798-.556-.56-.604.604-.043 1.054.193 1.645.525 1.313s.368-1.195.08-1.917zm3-11c-.32-.798-.556-.56-.604.604-.043 1.054.193 1.645.525 1.313s.368-1.195.08-1.917zm7-26c-.32-.798-.556-.56-.604.604-.043 1.054.193 1.645.525 1.313s.368-1.195.08-1.917zm3-11c-.32-.798-.556-.56-.604.604-.043 1.054.193 1.645.525 1.313s.368-1.195.08-1.917zm1-4c-.32-.798-.556-.56-.604.604-.043 1.054.193 1.645.525 1.313s.368-1.195.08-1.917zm3-11c-.32-.798-.556-.56-.604.604-.043 1.054.193 1.645.525 1.313s.368-1.195.08-1.917zm3-11c-.32-.798-.556-.56-.604.604-.043 1.054.193 1.645.525 1.313s.368-1.195.08-1.917zm5.176-17.812c0-.946-.318-.76-.86.5-.473 1.1-.86 2.675-.86 3.5 0 .945.318.76.86-.5.473-1.1.86-2.675.86-3.5zm1.824-8.187c-.32-.798-.556-.56-.604.604-.043 1.054.193 1.645.525 1.313s.368-1.195.08-1.917zm2.176-6.812c0-.946-.318-.76-.86.5-.473 1.1-.86 2.675-.86 3.5 0 .945.318.76.86-.5.473-1.1.86-2.675.86-3.5zm-143.13 3.396c-.332-.332-1.195-.368-1.917-.08-.798.32-.56.556.604.604 1.054.043 1.645-.193 1.313-.525zm-4.046-6.583c-.32-.798-.556-.56-.604.604-.043 1.054.193 1.645.525 1.313s.368-1.195.08-1.917zm5-2c-.32-.798-.556-.56-.604.604-.043 1.054.193 1.645.525 1.313s.368-1.195.08-1.917zm-6.112-3.384c-.368-1.466-.894-2.44-1.168-2.165s-.2 1.7.168 3.165.894 2.44 1.17 2.165.2-1.7-.17-3.165zm151.288-2.43c0-.946-.318-.76-.86.5-.473 1.1-.86 2.675-.86 3.5 0 .945.318.76.86-.5.473-1.1.86-2.675.86-3.5zm-143-1c0-.946-.318-.76-.86.5-.473 1.1-.86 2.675-.86 3.5 0 .945.318.76.86-.5.473-1.1.86-2.675.86-3.5zm-10.176-2.187c-.32-.798-.556-.56-.604.604-.043 1.054.193 1.645.525 1.313s.368-1.195.08-1.917zm-134.824-4.812c0-.946-.318-.76-.86.5-.473 1.1-.86 2.675-.86 3.5 0 .945.318.76.86-.5.473-1.1.86-2.675.86-3.5zm133.57-.43c-.368-1.465-.862-2.472-1.098-2.236s-.127 1.627.24 3.093.862 2.472 1.098 2.236.127-1.628-.24-3.093zm156.254.24c-.32-.798-.556-.56-.604.604-.043 1.054.193 1.645.525 1.313s.368-1.195.08-1.917zm-289-4c-.32-.798-.556-.56-.604.604-.043 1.054.193 1.645.525 1.313s.368-1.195.08-1.917zm291-3c-.32-.798-.556-.56-.604.604-.043 1.054.193 1.645.525 1.313s.368-1.195.08-1.917zm-141.824-3.812c0-.946-.318-.76-.86.5-.473 1.1-.86 2.675-.86 3.5 0 .945.318.76.86-.5.473-1.1.86-2.675.86-3.5zm142.824-.187c-.32-.798-.556-.56-.604.604-.043 1.054.193 1.645.525 1.313s.368-1.195.08-1.917zm-140.824-6.812c0-.946-.318-.76-.86.5-.473 1.1-.86 2.675-.86 3.5 0 .945.318.76.86-.5.473-1.1.86-2.675.86-3.5zm-23.43-.43c-.368-1.465-.862-2.472-1.098-2.236s-.127 1.627.24 3.093.862 2.472 1.098 2.236.127-1.628-.24-3.093zm-123.746.24c-.32-.798-.556-.56-.604.604-.043 1.054.193 1.645.525 1.313s.368-1.195.08-1.917zm291-4c-.32-.798-.556-.56-.604.604-.043 1.054.193 1.645.525 1.313s.368-1.195.08-1.917zm-289-3c-.32-.798-.556-.56-.604.604-.043 1.054.193 1.645.525 1.313s.368-1.195.08-1.917zm291.176-3.812c0-.946-.318-.76-.86.5-.473 1.1-.86 2.675-.86 3.5 0 .945.318.76.86-.5.473-1.1.86-2.675.86-3.5zm.824-4.187c-.32-.798-.556-.56-.604.604-.043 1.054.193 1.645.525 1.313s.368-1.195.08-1.917zm-142-3c-.32-.798-.556-.56-.604.604-.043 1.054.193 1.645.525 1.313s.368-1.195.08-1.917zm144.176-3.812c0-.946-.318-.76-.86.5-.473 1.1-.86 2.675-.86 3.5 0 .945.318.76.86-.5.473-1.1.86-2.675.86-3.5zm3-11c0-.946-.318-.76-.86.5-.473 1.1-.86 2.675-.86 3.5 0 .945.318.76.86-.5.473-1.1.86-2.675.86-3.5zm-290.176.813c-.32-.798-.556-.56-.604.604-.043 1.054.193 1.645.525 1.313s.368-1.195.08-1.917zm293.176-11.812c0-.946-.318-.76-.86.5-.473 1.1-.86 2.675-.86 3.5 0 .945.318.76.86-.5.473-1.1.86-2.675.86-3.5zm-290.176.813c-.32-.798-.556-.56-.604.604-.043 1.054.193 1.645.525 1.313s.368-1.195.08-1.917zm291-5c-.32-.798-.556-.56-.604.604-.043 1.054.193 1.645.525 1.313s.368-1.195.08-1.917zm-142-3c-.32-.798-.556-.56-.604.604-.043 1.054.193 1.645.525 1.313s.368-1.195.08-1.917zm-55-13c-.32-.798-.556-.56-.604.604-.043 1.054.193 1.645.525 1.313s.368-1.195.08-1.917zm96-137c-.32-.798-.556-.56-.604.604-.043 1.054.193 1.645.525 1.313s.368-1.195.08-1.917zm-138.683-20.253c0-1.056-1.92-1.5-2.5-.576-.346.56.073 1.017.93 1.017s1.56-.2 1.56-.44zm456.495 796.432c-.343-.555-.4-1.792-.124-2.75.442-1.542 1.415-266.828 1.92-523.74l.7-46 1.835 561.73c.378 5.35.535 10.188.348 10.75-.44 1.318-3.867 1.327-4.68.012zm-2797.682-33.674c.722-.29 1.584-.253 1.917.08s-.258.568-1.312.525c-1.165-.048-1.402-.285-.604-.604zm-7-1c.722-.29 1.584-.253 1.917.08s-.258.568-1.312.525c-1.165-.048-1.402-.285-.604-.604zm-7.062-.98c.688-.277 1.813-.277 2.5 0s.125.504-1.25.504-1.937-.227-1.25-.504zm-5.937-1.02c.722-.29 1.584-.253 1.917.08s-.258.568-1.312.525c-1.165-.048-1.402-.285-.604-.604zm-54-8c.722-.29 1.584-.253 1.917.08s-.258.568-1.312.525c-1.165-.048-1.402-.285-.604-.604zm-66-10c.722-.29 1.584-.253 1.917.08s-.258.568-1.312.525c-1.165-.048-1.402-.285-.604-.604zm-27-4c.722-.29 1.584-.253 1.917.08s-.258.568-1.312.525c-1.165-.048-1.402-.285-.604-.604zm-33-5c.722-.29 1.584-.253 1.917.08s-.258.568-1.312.525c-1.165-.048-1.402-.285-.604-.604zm-7-1c.722-.29 1.584-.253 1.917.08s-.258.568-1.312.525c-1.165-.048-1.402-.285-.604-.604zm-7-1c.722-.29 1.584-.253 1.917.08s-.258.568-1.312.525c-1.165-.048-1.402-.285-.604-.604zm-6-1c.722-.29 1.584-.253 1.917.08s-.258.568-1.312.525c-1.165-.048-1.402-.285-.604-.604zm-7-1c.722-.29 1.584-.253 1.917.08s-.258.568-1.312.525c-1.165-.048-1.402-.285-.604-.604zm-7.062-.98c.688-.277 1.813-.277 2.5 0s.125.504-1.25.504-1.937-.227-1.25-.504zm-1341.31-1.507c-.58-.824-.705-48.006-.325-123.83l.94-226.5.995-78.5c.368 14.025.782 112.575.92 219l.89 199.5.64 6 21.5.32c22.187.33 60.595-.468 184.5-3.83l240-5.798c6.833.3-80.62 2.934-226.5 6.82l-220.06 7.588c-1.56.34-2.928.04-3.5-.77zm1334.31.507c.688-.277 1.813-.277 2.5 0s.125.504-1.25.504-1.937-.227-1.25-.504zm-6-1c.688-.277 1.813-.277 2.5 0s.125.504-1.25.504-1.937-.227-1.25-.504zm-6.48-1.03c.973-.254 2.323-.237 3 .037s-.12.48-1.77.46-2.204-.245-1.23-.5zm-7-1c.973-.254 2.323-.237 3 .037s-.12.48-1.77.46-2.204-.245-1.23-.5zm-7-1c.973-.254 2.323-.237 3 .037s-.12.48-1.77.46-2.204-.245-1.23-.5zm-6-1c.973-.254 2.323-.237 3 .037s-.12.48-1.77.46-2.204-.245-1.23-.5zm-7-1c.973-.254 2.323-.237 3 .037s-.12.48-1.77.46-2.204-.245-1.23-.5zm-7.02-.997c.963-.25 2.537-.25 3.5 0s.175.458-1.75.458-2.713-.206-1.75-.458zm-7-1c.963-.25 2.537-.25 3.5 0s.175.458-1.75.458-2.713-.206-1.75-.458zm-26.25-3.413l-131.785-18.585c-9.49-.637-12.43-1.584-11.605-3.737.686-1.788 5.23-2.948 6.736-1.72 2.14 1.744 20.853 4.99 90.154 15.64l70 10.975c2.77 1.032-6.914-.028-23.5-2.572zm-790.25-3.638a133.41 133.41 0 0 1 12.5 0c3.438.195.625.355-6.25.355s-9.687-.16-6.25-.355zm24.012.033c1.244-.24 3.044-.23 4 .02s-.062.446-2.262.435-2.982-.216-1.738-.455zm13.534-1.037c4.288-.188 11.038-.187 15 0s.454.343-7.796.342-11.492-.157-7.204-.344zm35.454-.918c.688-.277 1.813-.277 2.5 0s.125.504-1.25.504-1.937-.227-1.25-.504zm10.53-.074c2.63-.207 6.68-.204 9 .01s.17.38-4.78.376-6.85-.175-4.22-.38zm26.99-.957c.973-.253 2.323-.237 3 .037s-.12.48-1.77.46-2.204-.244-1.23-.498zm11.48-.04a57.17 57.17 0 0 1 8.5 0c2.338.2.425.383-4.25.383s-6.588-.172-4.25-.383zm27.063-.95c.722-.29 1.584-.253 1.917.08s-.258.57-1.312.525c-1.165-.048-1.402-.285-.604-.604zm7.438-.052a73.08 73.08 0 0 1 9.5 0c2.612.206.475.375-4.75.375s-7.362-.17-4.75-.375zm37.5-.998c2.338-.2 6.162-.2 8.5 0s.425.383-4.25.383-6.588-.172-4.25-.383zm39.954-1.187c4.658-.33 8.764-1.143 9.5-1.88 1.048-1.05 1.39-36.52 1.796-185.5l1.215-175.7c.394 4.675.968 87.452 1.276 183.95l2.037 177.08c.812.897 1.176 1.933.808 2.3s-6.106.593-12.752.5c-11.675-.163-11.806-.188-3.88-.75zm33.046-.813c2.338-.2 6.162-.2 8.5 0s.425.383-4.25.383-6.588-.172-4.25-.383zm37.026-1c2.352-.21 5.952-.208 8 .01s.124.388-4.276.384-6.076-.18-3.724-.39zm35.474-.983c1.513-.23 3.987-.23 5.5 0s.275.417-2.75.417-4.263-.187-2.75-.417zm9.5.054c.688-.277 1.813-.277 2.5 0s.125.504-1.25.504-1.937-.227-1.25-.504zm232.178-6.357c-1.18-.66-1.325-2.46-.777-9.646.37-4.86.713-75.475.76-156.924l.837-165c.9-20.527 1.664 60.636 2.032 218.997l.835 108.603c.63 3.946-.862 5.553-3.69 3.97zm834.95-224.563l-.778-239.917c-.608-21.297-.518-23.24 1.205-26.252 2.004-3.5 2.8-3.803 12.696-4.76 3.575-.347 22.475-3.283 42-6.524l163-26.39c9.373-.856-9.93 2.85-62.5 12.005l-147.285 26.012c-1.807.37-3.832 1.627-4.5 2.792-.94 1.638-1.328 56.058-1.715 240.285l-1.25 238.917c-.413.413-.805-96.863-.872-216.167zm-764.128 146.17c-.412-15.902-.75-108.21-.75-205.128l-1.305-177.298c-2.86-2.374-19.978-3.738-96.195-7.668l-273.5-14.498-101-5.5-176-10.366c3.025-.07 13.6.323 23.5.875l449.5 23.435 166 7.26c14.034-.597 17.69-1.45 131.862-30.803l58.785-14.58c.233.232-3.53 1.41-8.362 2.618-22.695 5.672-148.796 39.428-161.532 43.24-6.034 1.807-6.84 2.353-7.642 5.173-.507 1.784-1 74.818-1.137 168.154l-.858 204.5-.617 39.5zm567.063 22.73c.722-.29 1.584-.253 1.917.08s-.258.568-1.312.525c-1.165-.048-1.402-.285-.604-.604zm-24.812-1.02l-255-17.346-259.436-16.38c-1.36.34-2.716-.052-3.52-1.02-1.11-1.337-.917-1.94 1.268-3.965 2.49-2.307 2.62-2.324 3.883-.506 1.56 2.247 9.24 2.984 87.806 8.428l439 30.886c1.83.456-7.793.4-14-.096zm2120.5-10.157c1.882-.84 1.855-.915-.47-1.267-2.36-.358-2.892-1.967-11.92-36.078-5.198-19.637-9.77-35.505-10.164-35.263-.9.563-3.187-8.333-2.442-9.54.307-.497.26-2.09-.105-3.544-.383-1.525-.952-2.173-1.347-1.533-.376.61-2.578-5.76-4.892-14.155l-10.712-38.762-31.048-114.5-90.4-335.5-31.128-113.234c-3.124-10.083-3.1-13.766.086-13.766 1.002 0 10.084 1.993 20.183 4.428l48.86 11.59 90 21.71c1.217.473 1.156.664-.325 1.016-1.626.386-1.664.614-.344 2.095.815.914 7.475 24.35 14.8 52.08 9.453 35.786 13.514 49.716 13.994 48 .372-1.33.72-2.08.776-1.666s3.67 13.688 8.03 29.5l20.425 75.25 102.262 380 23.632 84.75c.795 2.245.83 3.57.114 4.287-.59.59-8.094 1.235-17.45 1.497l-42.914 1.46c-40.35 1.524-89.797 2.173-87.5 1.148zm18.77-1.797c-.677-.274-2.027-.29-3-.037s-.42.478 1.23.498 2.446-.187 1.77-.46zm17-1c-.677-.274-2.027-.29-3-.037s-.42.478 1.23.498 2.446-.187 1.77-.46zm21-1c-.677-.274-2.027-.29-3-.037s-.42.478 1.23.498 2.446-.187 1.77-.46zm21.48-1.034c-.962-.25-2.538-.25-3.5 0s-.175.458 1.75.458 2.712-.206 1.75-.458zm20.52-.966c-.677-.274-2.027-.29-3-.037s-.42.478 1.23.498 2.446-.187 1.77-.46zm21.48-1.034c-.962-.25-2.538-.25-3.5 0s-.175.458 1.75.458 2.712-.206 1.75-.458zm18.98-.915c-.332-.332-1.195-.368-1.917-.08-.798.32-.56.556.604.604 1.054.043 1.645-.193 1.313-.525zm-168.046-91.583c-.32-.798-.556-.56-.604.604-.043 1.054.193 1.645.525 1.313s.368-1.195.08-1.917zm148 0c-.32-.798-.556-.56-.604.604-.043 1.054.193 1.645.525 1.313s.368-1.195.08-1.917zm-149-4c-.32-.798-.556-.56-.604.604-.043 1.054.193 1.645.525 1.313s.368-1.195.08-1.917zm-4-15c-.32-.798-.556-.56-.604.604-.043 1.054.193 1.645.525 1.313s.368-1.195.08-1.917zm-5-19c-.32-.798-.556-.56-.604.604-.043 1.054.193 1.645.525 1.313s.368-1.195.08-1.917zm147-3c-.32-.798-.556-.56-.604.604-.043 1.054.193 1.645.525 1.313s.368-1.195.08-1.917zm-7-26c-.32-.798-.556-.56-.604.604-.043 1.054.193 1.645.525 1.313s.368-1.195.08-1.917zm-4-15c-.32-.798-.556-.56-.604.604-.043 1.054.193 1.645.525 1.313s.368-1.195.08-1.917zm-4-15c-.32-.798-.556-.56-.604.604-.043 1.054.193 1.645.525 1.313s.368-1.195.08-1.917zm-149-5c-.32-.798-.556-.56-.604.604-.043 1.054.193 1.645.525 1.313s.368-1.195.08-1.917zm140-29c-.32-.798-.556-.56-.604.604-.043 1.054.193 1.645.525 1.313s.368-1.195.08-1.917zm-4-15c-.32-.798-.556-.56-.604.604-.043 1.054.193 1.645.525 1.313s.368-1.195.08-1.917zm-4-15c-.32-.798-.556-.56-.604.604-.043 1.054.193 1.645.525 1.313s.368-1.195.08-1.917zm-4-15c-.32-.798-.556-.56-.604.604-.043 1.054.193 1.645.525 1.313s.368-1.195.08-1.917zm-4-15c-.32-.798-.556-.56-.604.604-.043 1.054.193 1.645.525 1.313s.368-1.195.08-1.917zm-4-15c-.32-.798-.556-.56-.604.604-.043 1.054.193 1.645.525 1.313s.368-1.195.08-1.917zm-4-15c-.32-.798-.556-.56-.604.604-.043 1.054.193 1.645.525 1.313s.368-1.195.08-1.917zm-4-15c-.32-.798-.556-.56-.604.604-.043 1.054.193 1.645.525 1.313s.368-1.195.08-1.917zm-4-15c-.32-.798-.556-.56-.604.604-.043 1.054.193 1.645.525 1.313s.368-1.195.08-1.917zm-4-15c-.32-.798-.556-.56-.604.604-.043 1.054.193 1.645.525 1.313s.368-1.195.08-1.917zm-151-12c-.32-.798-.556-.56-.604.604-.043 1.054.193 1.645.525 1.313s.368-1.195.08-1.917zm147-3c-.32-.798-.556-.56-.604.604-.043 1.054.193 1.645.525 1.313s.368-1.195.08-1.917zm-4-15c-.32-.798-.556-.56-.604.604-.043 1.054.193 1.645.525 1.313s.368-1.195.08-1.917zm-4-15c-.32-.798-.556-.56-.604.604-.043 1.054.193 1.645.525 1.313s.368-1.195.08-1.917zm-4-15c-.32-.798-.556-.56-.604.604-.043 1.054.193 1.645.525 1.313s.368-1.195.08-1.917zm-4-15c-.32-.798-.556-.56-.604.604-.043 1.054.193 1.645.525 1.313s.368-1.195.08-1.917zm-2.254-9.24c-.368-1.465-.862-2.472-1.097-2.236s-.128 1.627.24 3.093.862 2.472 1.097 2.236.128-1.628-.24-3.093zm-1.746-5.76c-.32-.798-.556-.56-.604.604-.043 1.054.193 1.645.525 1.313s.368-1.195.08-1.917zm-4-15c-.32-.798-.556-.56-.604.604-.043 1.054.193 1.645.525 1.313s.368-1.195.08-1.917zm-2.254-9.24c-.368-1.465-.862-2.472-1.097-2.236s-.128 1.627.24 3.093.862 2.472 1.097 2.236.128-1.628-.24-3.093zm-1.746-5.76c-.32-.798-.556-.56-.604.604-.043 1.054.193 1.645.525 1.313s.368-1.195.08-1.917zm-2.254-9.24c-.368-1.465-.862-2.472-1.097-2.236s-.128 1.627.24 3.093.862 2.472 1.097 2.236.128-1.628-.24-3.093zm-1.746-5.76c-.32-.798-.556-.56-.604.604-.043 1.054.193 1.645.525 1.313s.368-1.195.08-1.917zm-2.254-9.24c-.368-1.465-.862-2.472-1.097-2.236s-.128 1.627.24 3.093.862 2.472 1.097 2.236.128-1.628-.24-3.093zm-1.746-5.76c-.32-.798-.556-.56-.604.604-.043 1.054.193 1.645.525 1.313s.368-1.195.08-1.917zm-3.254-13.24c-.368-1.465-.862-2.472-1.097-2.236s-.128 1.627.24 3.093.862 2.472 1.097 2.236.128-1.628-.24-3.093zm-1.746-5.76c-.32-.798-.556-.56-.604.604-.043 1.054.193 1.645.525 1.313s.368-1.195.08-1.917zm-2.766-11.23c-.646-2.562-1.36-4.472-1.6-4.243s.11 2.514.757 5.077 1.36 4.473 1.6 4.243-.11-2.514-.757-5.077zm-2.234-7.77c-.32-.798-.556-.56-.604.604-.043 1.054.193 1.645.525 1.313s.368-1.195.08-1.917zm-1-4c-.32-.798-.556-.56-.604.604-.043 1.054.193 1.645.525 1.313s.368-1.195.08-1.917zm-1.683-7.312c-1.66-5.934-2.445-5.15-.917.917.646 2.563 1.403 4.43 1.683 4.15s-.065-2.56-.766-5.067zm-2.317-7.687c-.32-.798-.556-.56-.604.604-.043 1.054.193 1.645.525 1.313s.368-1.195.08-1.917zm-1953.66 550.188c-.196-.275-.67-68.675-1.05-152l-1.084-153.5c-.297-1.532.15-2 1.9-2h2.298l-.18 77.5-1.892 230zm-675.375-90.026l-.225-133.73c.33-.33 2.775-.5 5.433-.38 6.642.303 24.44-1.785 156.644-18.376l372.832-46.376c5.287.273-5.482 1.763-86.332 11.945l-220.5 27.938-221.085 29.492-3.085 1.273-.664 63.87-.736 100.87c-.04 20.35-.418 37.888-.842 38.974s-1.072-32.9-1.44-75.5zm1699.493 4.78c-.23-41.06-.658-58.656-1.447-59.613-.856-1.04-.668-1.688.802-2.763 1.057-.773 2.4-1.25 2.962-1.06 2.193.73 1.23 120.622-.975 121.354-.677.225-1.125-19.072-1.343-57.918zm-72.642 56.153l-165.5-3.908c-9.14 0-9.226-.023-8.457-2.25.427-1.238.666-24.525.53-51.75-.237-47.46-.326-49.557-2.16-50.872-2-1.427-2.52-3.636-1.082-4.524.457-.283 23.745-.765 51.75-1.07l92.418-1.527c43.793-1.024 79.617-1.3 78.913-.586-.46.46-43.026 1.77-146.22 4.5-54.384 1.44-67.058 2.03-68.15 3.174-1.933 2.023-2.79 99.597-.88 100.33 2.316.89 15.5 1.616 46.84 2.585l160.5 5.893c4.44.85 4.412.862-2 .822-3.575-.023-20-.39-36.5-.815zm-377.5-5.97l-62.833-1.056c-15.583-.188-28.5-.613-28.704-.943s-.645-21.94-.98-48.02l-.796-49.92-.186-2.5 40.5-.604 101-1.376c35.698-.457 60.993-1.165 61.702-1.73.66-.526 1.952-.806 2.87-.623 1.523.304 1.656 3.536 1.544 37.333-.144 43.472-.976 66.04-2.38 64.634-.587-.587-1.18-20.02-1.5-49.054-.39-35.5-.842-48.34-1.724-49.073-.8-.655-12.856-.642-35.6.04l-96.76 2.395c-43.86.96-62.693 1.704-63.5 2.5-.812.81-1.293 14.04-1.647 45.347-.434 38.35-.302 44.43 1 45.918 1.614 1.847-5.522 1.543 114 4.854l55 1.863c13.506.67 11.512.765-15.5.743l-65.5-.74zm-710.188-254.622c.722-.29 1.584-.253 1.917.08s-.258.57-1.312.525c-1.165-.048-1.402-.285-.604-.604zm-789.812-7.342l-180.462-5.87c-1.303.262-2.1-.23-2.344-1.462-.677-3.3 1.04-3.698 11.364-2.698 5.468.53 21.416 1.443 35.44 2.03l183 8.033 49 2.406c4.348 1.02-35.114.018-96-2.44zm1410.554-103.888c-1.2-1.925-1.552-17.875-1.98-87.028l.527-73.25c.587-1.097 2.092-1.81 3.825-1.81 1.57 0 29.343-5.433 61.715-12.072l119.65-23.664c1.236.412-26.77 6.707-92.292 20.744-89.564 19.188-85.282 18.183-87.708 20.61l-2.214 2.214-.234 65.334-.344 84.334 4.5.286c2.475.157 39.375-4.664 82-10.714L2677.8 645.79c.6.6-52.27 8.89-148.648 23.304l-31 4.948c-8.817 1.685-9.7 1.728-10.447.52zM633.423 664.74c2.63-.207 6.68-.204 9 .006s.17.38-4.78.376-6.85-.175-4.22-.38zm-18.504-.997c2.352-.21 5.952-.208 8 .007s.124.388-4.276.384-6.076-.18-3.724-.39zm-17.526-.995c2.063-.216 5.438-.216 7.5 0s.375.392-3.75.392-5.812-.176-3.75-.392zm-18.5-.995c1.787-.222 4.713-.222 6.5 0s.325.403-3.25.403-5.037-.18-3.25-.403zm-16.486-.994c1.52-.23 3.77-.224 5 .014s-.014.425-2.764.418-3.756-.202-2.236-.432zm-19-1c1.52-.23 3.77-.224 5 .014s-.014.425-2.764.418-3.756-.202-2.236-.432zm-19.514-.988c1.237-.238 3.263-.238 4.5 0s.225.434-2.25.434-3.487-.195-2.25-.434zm-18.5-.983c.963-.25 2.537-.25 3.5 0s.175.458-1.75.458-2.713-.206-1.75-.458zm-18.437-.994c.722-.29 1.584-.253 1.917.08s-.258.57-1.312.525c-1.165-.048-1.402-.285-.604-.604zm999.71-6.72c2.212-.736 5.587-1.606 7.5-1.934 3.316-.57 3.29-.534-.543.74-2.212.735-5.587 1.606-7.5 1.934-3.316.57-3.29.534.543-.74zm12.29-3.28c.722-.29 1.584-.253 1.917.08s-.258.57-1.312.525c-1.165-.048-1.402-.285-.604-.604zm4-1c.722-.29 1.584-.253 1.917.08s-.258.57-1.312.525c-1.165-.048-1.402-.285-.604-.604zm4-1c.722-.29 1.584-.253 1.917.08s-.258.57-1.312.525c-1.165-.048-1.402-.285-.604-.604zm1180.595-.93c1.324-3.44-.14-165.85-1.52-168.53-1.006-1.956 1.192-4.2 3.627-3.687 1.463.302 1.594 6.034 1.427 62.333-.242 81.93-.98 110.684-2.852 111.305-1.028.34-1.213-.043-.683-1.42zm-1173.595-1.07c.722-.29 1.584-.253 1.917.08s-.258.57-1.312.525c-1.165-.048-1.402-.285-.604-.604zm4-1c.722-.29 1.584-.253 1.917.08s-.258.57-1.312.525c-1.165-.048-1.402-.285-.604-.604zm5.188-1.317c3.42-1.095 6.048-1.095 3.5 0-1.1.473-2.9.846-4 .83-1.608-.024-1.5-.187.5-.83zm6.813-1.683c.722-.29 1.584-.253 1.917.08s-.258.57-1.312.525c-1.165-.048-1.402-.285-.604-.604zm4.688-1.182c1.1-.48 3.575-1.16 5.5-1.5 2.403-.436 2.873-.36 1.5.24-1.1.48-3.575 1.16-5.5 1.5-2.403.436-2.873.36-1.5-.24zm10.313-2.818c.722-.29 1.584-.253 1.917.08s-.258.57-1.312.525c-1.165-.048-1.402-.285-.604-.604zm744.938.02c.688-.277 1.813-.277 2.5 0s.125.504-1.25.504-1.937-.227-1.25-.504zm-740.938-1.02c.722-.29 1.584-.253 1.917.08s-.258.57-1.312.525c-1.165-.048-1.402-.285-.604-.604zm4-1c.722-.29 1.584-.253 1.917.08s-.258.57-1.312.525c-1.165-.048-1.402-.285-.604-.604zm1228.837-21.567c-.36-12.238-.69-52.85-.735-90.25l-.08-68 5.333-.688c5.686-.734 10.733-1.812 99.833-21.332l116.5-25.008c2.425-.4 2.603-.31.93.423-2.32 1.016-25.69 6.406-119.43 27.543l-97.497 23.005c-1.067.836-1.462 8.734-1.902 38.055l-.263 132.25c1.183 1.896 7.228 1.535 29.663-1.77l181.445-25.74c1.13.18-1.322.87-5.447 1.53l-167 25.797-30.5 4.984c-3.85.796-7.72 1.447-8.598 1.448-1.396.001-1.68-2.805-2.253-22.25zm-1224.15 20.25c1.1-.473 2.675-.86 3.5-.86.946 0 .76.317-.5.86-1.1.473-2.675.86-3.5.86-.946 0-.76-.318.5-.86zm6.313-1.683c.722-.29 1.584-.253 1.917.08s-.258.57-1.312.525c-1.165-.048-1.402-.285-.604-.604zm4-1c.722-.29 1.584-.253 1.917.08s-.258.57-1.312.525c-1.165-.048-1.402-.285-.604-.604zm5.188-1.317c3.42-1.095 6.048-1.095 3.5 0-1.1.473-2.9.846-4 .83-1.608-.024-1.5-.187.5-.83zm7.5-1.865c1.1-.48 3.575-1.16 5.5-1.5 2.403-.436 2.873-.36 1.5.24-1.1.48-3.575 1.16-5.5 1.5-2.403.436-2.873.36-1.5-.24zm10.313-2.818c.722-.29 1.584-.253 1.917.08s-.258.57-1.312.525c-1.165-.048-1.402-.285-.604-.604zm4-1c.722-.29 1.584-.253 1.917.08s-.258.57-1.312.525c-1.165-.048-1.402-.285-.604-.604zm4.688-1.182c1.1-.48 3.575-1.16 5.5-1.5 2.403-.436 2.873-.36 1.5.24-1.1.48-3.575 1.16-5.5 1.5-2.403.436-2.873.36-1.5-.24zm10.313-2.818c.722-.29 1.584-.253 1.917.08s-.258.57-1.312.525c-1.165-.048-1.402-.285-.604-.604zm4-1c.722-.29 1.584-.253 1.917.08s-.258.57-1.312.525c-1.165-.048-1.402-.285-.604-.604zm5.188-1.317c3.42-1.095 6.048-1.095 3.5 0-1.1.473-2.9.846-4 .83-1.608-.024-1.5-.187.5-.83zm9.52-2.403c2.212-.736 5.587-1.606 7.5-1.934 3.316-.57 3.29-.534-.543.74-2.212.735-5.587 1.606-7.5 1.934-3.316.57-3.29.534.543-.74zm11.562-2.98c.23-.2 31.692-8.566 69.917-18.568l80.5-21.064 112.177-28.642c.227.227-3.095 1.334-7.382 2.46l-95.795 25.203-40 10.486-118.852 30.506c-.54 0-.794-.172-.565-.382zm1359.186-11.31c.973-.254 2.323-.237 3 .037s-.12.48-1.77.46-2.204-.245-1.23-.498zm28.23-4.307c.34-.55.816-1 1.06-1s.44.45.44 1-.477 1-1.06 1-.78-.45-.44-1zm1.25-12c-.397-5.225-.757-47.128-.8-93.12-.068-73.547-.263-83.883-1.616-85.815-.846-1.208-1.38-2.294-1.186-2.414s1.083-.774 1.975-1.453c4.465-3.395 4.395-4.713 4.072 76.56l-1.014 96.24c-.686 18.86-.733 19.188-1.43 10zm-1120.25-42.57c2.75-.765 5.45-1.353 6-1.306 1.692.145-6.87 2.723-9 2.71-1.1-.007.25-.64 3-1.404zm8.313-2.113c.722-.29 1.584-.253 1.917.08s-.258.57-1.312.525c-1.165-.048-1.402-.285-.604-.604zm4.688-1.317c1.1-.473 2.675-.86 3.5-.86.946 0 .76.317-.5.86-1.1.473-2.675.86-3.5.86-.946 0-.76-.318.5-.86zm10.313-2.683c.722-.29 1.584-.253 1.917.08s-.258.57-1.312.525c-1.165-.048-1.402-.285-.604-.604zm4-1c.722-.29 1.584-.253 1.917.08s-.258.57-1.312.525c-1.165-.048-1.402-.285-.604-.604zm4-1c.722-.29 1.584-.253 1.917.08s-.258.57-1.312.525c-1.165-.048-1.402-.285-.604-.604zm8.688-2.317c1.1-.473 2.675-.86 3.5-.86.946 0 .76.317-.5.86-1.1.473-2.675.86-3.5.86-.946 0-.76-.318.5-.86zm6.313-1.683c.722-.29 1.584-.253 1.917.08s-.258.57-1.312.525c-1.165-.048-1.402-.285-.604-.604zm4-1c.722-.29 1.584-.253 1.917.08s-.258.57-1.312.525c-1.165-.048-1.402-.285-.604-.604zm2603.188-3.358c-7.07-4.8-46.43-28.293-95.5-56.98l-285.5-167.453-53.5-31.792c-.667-.685-.667-.852 0-.5 1.812.957 232.983 135.478 282 164.1l146.237 84.544c9.484 5.08 14.154 8.12 13.988 9.11-.42 2.518-3.02 2.17-7.725-1.03zm-2588.188-.642c.722-.29 1.584-.253 1.917.08s-.258.57-1.312.525c-1.165-.048-1.402-.285-.604-.604zm16-4c.722-.29 1.584-.253 1.917.08s-.258.57-1.312.525c-1.165-.048-1.402-.285-.604-.604zm1964.76-2.888c-.368-1.466-.476-2.857-.24-3.093s.73.77 1.097 2.236.476 2.857.24 3.093-.73-.77-1.097-2.236zm-2-7c-.368-1.466-.476-2.857-.24-3.093s.73.77 1.097 2.236.476 2.857.24 3.093-.73-.77-1.097-2.236zm170.18-244c-3.738-2.028-3.51-2.873.25-.928 1.65.853 3 1.765 3 2.025 0 .644-.107.607-3.25-1.098zm-6.31-3.983c-1.864-1.494-1.852-1.512.31-.465 1.237.6 2.25 1.3 2.25 1.555 0 .765-.52.544-2.56-1.1zm-5-3c-1.864-1.494-1.852-1.512.31-.465 1.237.6 2.25 1.3 2.25 1.555 0 .765-.52.544-2.56-1.1zm-24-14c-1.864-1.494-1.852-1.512.31-.465 1.237.6 2.25 1.3 2.25 1.555 0 .765-.52.544-2.56-1.1zm-949.26-27.695c.3-2.12.926-2.29 10.82-2.915 15.514-.98 28.4-2.098 131-11.352l264.995-23.277c2.23.26-66.916 6.8-299.995 28.33l-98.492 10.46c-1.45.552-4 1.003-5.642 1.003-2.544 0-2.955-.345-2.685-2.25zm412.083-38.468c1.52-.23 3.77-.224 5 .014s-.014.425-2.764.418-3.756-.202-2.236-.432zm10.486-.988c1.238-.24 3.262-.24 4.5 0s.225.433-2.25.433-3.488-.195-2.25-.433zm11.52-.987c.973-.254 2.323-.237 3 .037s-.12.48-1.77.46-2.204-.245-1.23-.498z" fill="#be3120"/><path d="M3142.572 1431.324c-.628-.865-.74-19.955-.315-53.348l1.876-655 1.867 699 .642 5 4.764.305c2.62.168 13.42-.636 24-1.788l252.062-29.057 121-13.835c3.204.185-18.82 2.922-95.826 11.91l-305.546 37.517c-2.442.442-3.85.223-4.525-.706zm410.333-49.555c1.244-.24 3.044-.23 4 .02s-.062.446-2.262.435-2.982-.216-1.738-.455zm9-1c1.244-.24 3.044-.23 4 .02s-.062.446-2.262.435-2.982-.216-1.738-.455zm9-1c1.244-.24 3.044-.23 4 .02s-.062.446-2.262.435-2.982-.216-1.738-.455zm8.507-.985c.973-.254 2.323-.237 3 .037s-.12.48-1.77.46-2.204-.245-1.23-.5zm-5.864-45.694c-1.375-3.584.255-4.613 7.313-4.618 8.32-.01 29.7-1.952 120.28-10.95l346.584-33.98c1.83.065 1.827.106-.084.94-1.1.48-9.2 1.58-18 2.44l-340 34.588-113.238 12.577c-1.542.422-2.43.11-2.857-1zm-1158.946-3.68c-.363-.587-.42-1.307-.126-1.6.716-.716 2.667.546 2.667 1.726 0 1.278-1.726 1.192-2.54-.125zm1637.04-45.934c.34-.55 1.968-1 3.618-1 1.745 0 2.742.418 2.382 1-.34.55-1.968 1-3.618 1-1.745 0-2.742-.418-2.382-1zm10.5-1c0-.55 1.688-.968 3.75-.93 3.008.056 3.354.24 1.75.93-2.78 1.194-5.5 1.194-5.5 0zm10.5-1c-.373-.604.89-.972 3.19-.93 3.042.056 3.406.243 1.81.93-2.75 1.18-4.27 1.18-5 0zm-1657.845-31.743c-.365-16.917-.677-91.33-.694-165.364l-1.246-136.187c-1.094-1.423-5.426-1.483-43.715-.603l-43.75 1.405c-.99.34-1.284 23.796-1.412 112.2l-.888 102.28c-.4-5.225-.827-120.875-.95-257l-.862-261.88c-.5-11.3-.36-14.485.656-14.874.71-.272 1.606-.18 2 .202s.54 70.808.352 156.5l1 156.677c.745.48 20.35 1.01 43.563 1.174 37.385.266 42.49.117 44.657-1.304 1.58-1.036 2.674-1.24 3.086-.573 1.192 1.928.272 336.326-.93 337.835-.113.142-.503-13.583-.868-30.5zm1669.614 30.05c.973-.254 2.323-.237 3 .037s-.12.48-1.77.46-2.204-.245-1.23-.5zm11-1c.973-.254 2.323-.237 3 .037s-.12.48-1.77.46-2.204-.245-1.23-.5zm10-1c.973-.254 2.323-.237 3 .037s-.12.48-1.77.46-2.204-.245-1.23-.5zm10.543-1c.722-.29 1.584-.253 1.917.08s-.258.568-1.312.525c-1.165-.048-1.402-.285-.604-.604zm38.138-9.067c-.656-3.163-2.484-10.475-4.064-16.25l-4.376-16c-4.194-15.33-24.826-95.776-28.52-111.2l-4.24-17.7-15.25-.722 16.823.142 4.838 16.5 32.24 116.5 7.565 27.07c1.765 5.235 1.353 7.43-1.394 7.43-2.152 0-2.565-.655-3.62-5.75zm17.05.746c0-1.73 1.16-6.597 2.58-10.82 2.86-8.503 19.36-68.19 33.362-120.676l10.6-39.5 63.02-232.652 24.48-90.848 9.48-35 3.507-13 3.566-13.265 14.02-51.735 2.957-10.5c.73-2.475 1.83-6.458 2.447-8.85s1.35-4.123 1.628-3.843-2.7 12.812-6.62 27.85l-37.983 143.343c-.77 2.424-61.13 228.06-73.032 273l-4.95 18.5-37.598 141.5c-6.483 25.686-7.557 29.037-9.39 29.32-1.72.266-2.068-.21-2.068-2.824zm386.495-4.004c-.343-.555-.4-1.792-.124-2.75.442-1.542 1.415-266.828 1.92-523.74l.7-46 1.835 561.73c.378 5.35.535 10.188.348 10.75-.44 1.318-3.867 1.327-4.68.012zm-2797.682-33.674c.722-.29 1.584-.253 1.917.08s-.258.568-1.312.525c-1.165-.048-1.402-.285-.604-.604zm-7-1c.722-.29 1.584-.253 1.917.08s-.258.568-1.312.525c-1.165-.048-1.402-.285-.604-.604zm-7.062-.98c.688-.277 1.813-.277 2.5 0s.125.504-1.25.504-1.937-.227-1.25-.504zm-5.937-1.02c.722-.29 1.584-.253 1.917.08s-.258.568-1.312.525c-1.165-.048-1.402-.285-.604-.604zm-54-8c.722-.29 1.584-.253 1.917.08s-.258.568-1.312.525c-1.165-.048-1.402-.285-.604-.604zm-66-10c.722-.29 1.584-.253 1.917.08s-.258.568-1.312.525c-1.165-.048-1.402-.285-.604-.604zm-27-4c.722-.29 1.584-.253 1.917.08s-.258.568-1.312.525c-1.165-.048-1.402-.285-.604-.604zm-33-5c.722-.29 1.584-.253 1.917.08s-.258.568-1.312.525c-1.165-.048-1.402-.285-.604-.604zm-7-1c.722-.29 1.584-.253 1.917.08s-.258.568-1.312.525c-1.165-.048-1.402-.285-.604-.604zm-7-1c.722-.29 1.584-.253 1.917.08s-.258.568-1.312.525c-1.165-.048-1.402-.285-.604-.604zm-6-1c.722-.29 1.584-.253 1.917.08s-.258.568-1.312.525c-1.165-.048-1.402-.285-.604-.604zm-7-1c.722-.29 1.584-.253 1.917.08s-.258.568-1.312.525c-1.165-.048-1.402-.285-.604-.604zm-7.062-.98c.688-.277 1.813-.277 2.5 0s.125.504-1.25.504-1.937-.227-1.25-.504zm2621.85-15.923l-22.254-80.415-2.45-9.49-84.497-313.51-9.04-32.475c-4.475-15.506-5.28-19.405-4.404-21.33.6-1.294 1.622-2.17 2.293-1.947 1.315.438 1.59 1.345 4.786 15.75 2.045 9.22 17.64 69.075 26.445 101.5l9.375 35 57.28 215.5 3.452 12.5c1.38 4.993 13.122 50.082 17.97 69l4.584 17.254c1.112 4 1.848 7.776 1.635 8.415s-2.542-6.45-5.177-15.754zm-3963.16 14.416c-.58-.824-.705-48.006-.325-123.83l.94-226.5.995-78.5c.368 14.025.782 112.575.92 219l.89 199.5.64 6 21.5.32c22.187.33 60.595-.468 184.5-3.83l240-5.798c6.833.3-80.62 2.934-226.5 6.82l-220.06 7.588c-1.56.34-2.928.04-3.5-.77zm1334.31.507c.688-.277 1.813-.277 2.5 0s.125.504-1.25.504-1.937-.227-1.25-.504zm-6-1c.688-.277 1.813-.277 2.5 0s.125.504-1.25.504-1.937-.227-1.25-.504zm-6.48-1.03c.973-.254 2.323-.237 3 .037s-.12.48-1.77.46-2.204-.245-1.23-.5zm-7-1c.973-.254 2.323-.237 3 .037s-.12.48-1.77.46-2.204-.245-1.23-.5zm-7-1c.973-.254 2.323-.237 3 .037s-.12.48-1.77.46-2.204-.245-1.23-.5zm-6-1c.973-.254 2.323-.237 3 .037s-.12.48-1.77.46-2.204-.245-1.23-.5zm-7-1c.973-.254 2.323-.237 3 .037s-.12.48-1.77.46-2.204-.245-1.23-.5zm-7.02-.997c.963-.25 2.537-.25 3.5 0s.175.458-1.75.458-2.713-.206-1.75-.458zm-7-1c.963-.25 2.537-.25 3.5 0s.175.458-1.75.458-2.713-.206-1.75-.458zm-26.25-3.413l-131.785-18.585c-9.49-.637-12.43-1.584-11.605-3.737.686-1.788 5.23-2.948 6.736-1.72 2.14 1.744 20.853 4.99 90.154 15.64l70 10.975c2.77 1.032-6.914-.028-23.5-2.572zm-790.25-3.638a133.41 133.41 0 0 1 12.5 0c3.438.195.625.355-6.25.355s-9.687-.16-6.25-.355zm24.012.033c1.244-.24 3.044-.23 4 .02s-.062.446-2.262.435-2.982-.216-1.738-.455zm13.534-1.037c4.288-.188 11.038-.187 15 0s.454.343-7.796.342-11.492-.157-7.204-.344zm35.454-.918c.688-.277 1.813-.277 2.5 0s.125.504-1.25.504-1.937-.227-1.25-.504zm10.53-.074c2.63-.207 6.68-.204 9 .01s.17.38-4.78.376-6.85-.175-4.22-.38zm26.99-.957c.973-.253 2.323-.237 3 .037s-.12.48-1.77.46-2.204-.244-1.23-.498zm11.48-.04a57.17 57.17 0 0 1 8.5 0c2.338.2.425.383-4.25.383s-6.588-.172-4.25-.383zm27.063-.95c.722-.29 1.584-.253 1.917.08s-.258.57-1.312.525c-1.165-.048-1.402-.285-.604-.604zm7.438-.052a73.08 73.08 0 0 1 9.5 0c2.612.206.475.375-4.75.375s-7.362-.17-4.75-.375zm37.5-.998c2.338-.2 6.162-.2 8.5 0s.425.383-4.25.383-6.588-.172-4.25-.383zm39.954-1.187c4.658-.33 8.764-1.143 9.5-1.88 1.048-1.05 1.39-36.52 1.796-185.5l1.215-175.7c.394 4.675.968 87.452 1.276 183.95l2.037 177.08c.812.897 1.176 1.933.808 2.3s-6.106.593-12.752.5c-11.675-.163-11.806-.188-3.88-.75zm33.046-.813c2.338-.2 6.162-.2 8.5 0s.425.383-4.25.383-6.588-.172-4.25-.383zm37.026-1c2.352-.21 5.952-.208 8 .01s.124.388-4.276.384-6.076-.18-3.724-.39zm35.474-.983c1.513-.23 3.987-.23 5.5 0s.275.417-2.75.417-4.263-.187-2.75-.417zm9.5.054c.688-.277 1.813-.277 2.5 0s.125.504-1.25.504-1.937-.227-1.25-.504zm232.178-6.357c-1.18-.66-1.325-2.46-.777-9.646.37-4.86.713-75.475.76-156.924l.837-165c.9-20.527 1.664 60.636 2.032 218.997l.835 108.603c.63 3.946-.862 5.553-3.69 3.97zm2343.822-72.98l-1.604-731.838c-.753-19.035-.668-19.256 6.68-17.278 2.57.692 15.698 3.662 29.173 6.6l140.78 31.96c1.627 1.627-16.943-1.896-85.78-16.277l-39-8.036c-3.025-.57-9.775-1.978-15-3.128-19.244-4.236-29.306-6.1-30.485-5.648-.774.297-1.45 4.204-1.88 10.862-.37 5.72-.74 169.223-.826 363.34l-.73 395.44-.577 42.5zM2065.02 939.893l-.778-239.917c-.608-21.297-.518-23.24 1.205-26.252 2.004-3.5 2.8-3.803 12.696-4.76 3.575-.347 22.475-3.283 42-6.524l163-26.39c9.373-.856-9.93 2.85-62.5 12.005l-147.285 26.012c-1.807.37-3.832 1.627-4.5 2.792-.94 1.638-1.328 56.058-1.715 240.285l-1.25 238.917c-.413.413-.805-96.863-.872-216.167zm1684.492 179.285c-.48-.856-.543-10.417-.14-21.375.402-10.904.73-144.926.73-297.826l1.928-314.945c.336.336.836 141.685 1.11 314.11l2.5 315.005c2.158 1.627-1.453 1.663 70-.703l239.5-6.16c-.825.512-9.825 1.22-20 1.574l-197.5 7.116-92.13 4.132c-4.05.492-5.313.296-6-.926zm-2448.62-33.114c-.412-15.902-.75-108.21-.75-205.128l-1.305-177.298c-2.86-2.374-19.978-3.738-96.195-7.668l-273.5-14.498-101-5.5-176-10.366c3.025-.07 13.6.323 23.5.875l449.5 23.435 166 7.26c14.034-.597 17.69-1.45 131.862-30.803l58.785-14.58c.233.232-3.53 1.41-8.362 2.618-22.695 5.672-148.796 39.428-161.532 43.24-6.034 1.807-6.84 2.353-7.642 5.173-.507 1.784-1 74.818-1.137 168.154l-.858 204.5-.617 39.5zm567.063 22.73c.722-.29 1.584-.253 1.917.08s-.258.568-1.312.525c-1.165-.048-1.402-.285-.604-.604zm-24.812-1.02l-255-17.346-259.436-16.38c-1.36.34-2.716-.052-3.52-1.02-1.11-1.337-.917-1.94 1.268-3.965 2.49-2.307 2.62-2.324 3.883-.506 1.56 2.247 9.24 2.984 87.806 8.428l439 30.886c1.83.456-7.793.4-14-.096zm2229.5-1.298c2.8-1.208 14.254-1.208 15 0 .396.64-2.556.975-8.19.93-5.852-.047-8.138-.36-6.81-.93zm-109-8.83c1.1-.482 8.075-1.184 15.5-1.558l119-5.618c7.117-.04 7.65-.752 6.153-8.186-.7-3.47-6.475-26.1-12.833-50.3l-51.91-195.5-30.33-113.5-25.097-94.5-10.133-38-10.73-41-6.082-22.994c-1.044-3.52-1.408-7.712-.6-6.904.567.566 13.195 46.374 28.92 104.897l102.262 380 23.63 84.75c.795 2.245.83 3.57.114 4.287-.59.59-8.094 1.235-17.45 1.497l-42.913 1.46c-40.1 1.515-89.793 2.184-87.5 1.178zm-1960.477-22.17c-.196-.275-.67-68.675-1.05-152l-1.084-153.5c-.297-1.532.15-2 1.9-2h2.298l-.18 77.5-1.892 230zm-675.375-90.026l-.225-133.73c.33-.33 2.775-.5 5.433-.38 6.642.303 24.44-1.785 156.644-18.376l372.832-46.376c5.287.273-5.482 1.763-86.332 11.945l-220.5 27.938-221.085 29.492-3.085 1.273-.664 63.87-.736 100.87c-.04 20.35-.418 37.888-.842 38.974s-1.072-32.9-1.44-75.5zm1699.493 4.78c-.23-41.06-.658-58.656-1.447-59.613-.856-1.04-.668-1.688.802-2.763 1.057-.773 2.4-1.25 2.962-1.06 2.193.73 1.23 120.622-.975 121.354-.677.225-1.125-19.072-1.343-57.918zm-72.642 56.153l-165.5-3.908c-9.14 0-9.226-.023-8.457-2.25.427-1.238.666-24.525.53-51.75-.237-47.46-.326-49.557-2.16-50.872-2-1.427-2.52-3.636-1.082-4.524.457-.283 23.745-.765 51.75-1.07l92.418-1.527c43.793-1.024 79.617-1.3 78.913-.586-.46.46-43.026 1.77-146.22 4.5-54.384 1.44-67.058 2.03-68.15 3.174-1.933 2.023-2.79 99.597-.88 100.33 2.316.89 15.5 1.616 46.84 2.585l160.5 5.893c4.44.85 4.412.862-2 .822-3.575-.023-20-.39-36.5-.815zm-377.5-5.97l-62.833-1.056c-15.583-.188-28.5-.613-28.704-.943s-.645-21.94-.98-48.02l-.796-49.92-.186-2.5 40.5-.604 101-1.376c35.698-.457 60.993-1.165 61.702-1.73.66-.526 1.952-.806 2.87-.623 1.523.304 1.656 3.536 1.544 37.333-.144 43.472-.976 66.04-2.38 64.634-.587-.587-1.18-20.02-1.5-49.054-.39-35.5-.842-48.34-1.724-49.073-.8-.655-12.856-.642-35.6.04l-96.76 2.395c-43.86.96-62.693 1.704-63.5 2.5-.812.81-1.293 14.04-1.647 45.347-.434 38.35-.302 44.43 1 45.918 1.614 1.847-5.522 1.543 114 4.854l55 1.863c13.506.67 11.512.765-15.5.743l-65.5-.74zm1362.083-19.522c-.645-2.563-.986-4.847-.757-5.077s.945 1.68 1.6 4.243.986 4.848.757 5.077-.945-1.68-1.6-4.243zm-6.896-24.55l-10.74-38.866-31.048-114.5-90.4-335.5-31.128-113.234c-3.124-10.083-3.1-13.766.086-13.766 1.002 0 10.084 1.993 20.183 4.428l48.86 11.59 90 21.71c1.256.488 1.223.65-.203.992-.937.226-8.362-1.01-16.5-2.742l-114.613-25.15c-13.21-2.95-23.187-4.723-23.697-4.21-1.06 1.063 7.16 33.77 28.496 113.384l72.588 271.5c1.035 3.386 27.84 104.12 31.4 118l19.058 72 8.632 32.865c2.16 8.176 3.78 15.315 3.595 15.866s-2.24-5.914-4.57-14.365zm-2065.375-210.55c.722-.29 1.584-.253 1.917.08s-.258.57-1.312.525c-1.165-.048-1.402-.285-.604-.604zm-789.812-7.342l-180.462-5.87c-1.303.262-2.1-.23-2.344-1.462-.677-3.3 1.04-3.698 11.364-2.698 5.468.53 21.416 1.443 35.44 2.03l183 8.033 49 2.406c4.348 1.02-35.114.018-96-2.44zm3094.527-51.225l-1.414-6.25c-.497-2.2-2.47-9.4-4.387-16l-18.655-66.5-30.1-111c-15.6-57.4-16.495-60.5-17.507-60.5-.52 0-3.086 7.875-5.704 17.5l-28.798 105-36.536 128.758c-.527-.527 7.118-31.572 16.516-67.062l42.56-160.196c3.1-11.55 6.446-24.8 7.414-29.446 1.78-8.54 3.835-11.706 6.118-9.424.597.597 1.734 4.185 2.526 7.973s5.695 22.864 10.896 42.392l51.1 194.223c2.568 10.295 5.263 19.52 5.988 20.5 1.203 1.627 1.465 1.433 3.007-2.218.928-2.2 5.198-17.725 9.488-34.5l24.47-93.5 26.664-103.398c.572-4.3 2.85-4.72 12.504-2.305 4.848 1.213 30.19 6.926 56.314 12.697 65.67 14.506 73.403 16.437 71.883 17.957-.416.415-23.113-4.055-80.883-15.928-51.246-10.532-52.423-10.746-53.924-9.8-.817.516-2.013 2.926-2.658 5.356l-3.212 11.92-7.098 26.5-6.547 24c-1.418 4.755-16.09 58.364-26.546 97l-17.01 60.505c-1.653 5.778-3.006 12.19-3.006 14.25 0 4.24-2.596 5.356-3.473 1.495zm-1683.974-52.664c-1.2-1.925-1.552-17.875-1.98-87.028l.527-73.25c.587-1.097 2.092-1.81 3.825-1.81 1.57 0 29.343-5.433 61.715-12.072l119.65-23.664c1.236.412-26.77 6.707-92.292 20.744-89.564 19.188-85.282 18.183-87.708 20.61l-2.214 2.214-.234 65.334-.344 84.334 4.5.286c2.475.157 39.375-4.664 82-10.714L2677.8 645.79c.6.6-52.27 8.89-148.648 23.304l-31 4.948c-8.817 1.685-9.7 1.728-10.447.52zM633.423 664.74c2.63-.207 6.68-.204 9 .006s.17.38-4.78.376-6.85-.175-4.22-.38zm-18.504-.997c2.352-.21 5.952-.208 8 .007s.124.388-4.276.384-6.076-.18-3.724-.39zm-17.526-.995c2.063-.216 5.438-.216 7.5 0s.375.392-3.75.392-5.812-.176-3.75-.392zm-18.5-.995c1.787-.222 4.713-.222 6.5 0s.325.403-3.25.403-5.037-.18-3.25-.403zm-16.486-.994c1.52-.23 3.77-.224 5 .014s-.014.425-2.764.418-3.756-.202-2.236-.432zm-19-1c1.52-.23 3.77-.224 5 .014s-.014.425-2.764.418-3.756-.202-2.236-.432zm-19.514-.988c1.237-.238 3.263-.238 4.5 0s.225.434-2.25.434-3.487-.195-2.25-.434zm-18.5-.983c.963-.25 2.537-.25 3.5 0s.175.458-1.75.458-2.713-.206-1.75-.458zm-18.437-.994c.722-.29 1.584-.253 1.917.08s-.258.57-1.312.525c-1.165-.048-1.402-.285-.604-.604zm999.71-6.72c2.212-.736 5.587-1.606 7.5-1.934 3.316-.57 3.29-.534-.543.74-2.212.735-5.587 1.606-7.5 1.934-3.316.57-3.29.534.543-.74zm12.29-3.28c.722-.29 1.584-.253 1.917.08s-.258.57-1.312.525c-1.165-.048-1.402-.285-.604-.604zm4-1c.722-.29 1.584-.253 1.917.08s-.258.57-1.312.525c-1.165-.048-1.402-.285-.604-.604zm4-1c.722-.29 1.584-.253 1.917.08s-.258.57-1.312.525c-1.165-.048-1.402-.285-.604-.604zm1180.595-.93c1.324-3.44-.14-165.85-1.52-168.53-1.006-1.956 1.192-4.2 3.627-3.687 1.463.302 1.594 6.034 1.427 62.333-.242 81.93-.98 110.684-2.852 111.305-1.028.34-1.213-.043-.683-1.42zm-1173.595-1.07c.722-.29 1.584-.253 1.917.08s-.258.57-1.312.525c-1.165-.048-1.402-.285-.604-.604zm4-1c.722-.29 1.584-.253 1.917.08s-.258.57-1.312.525c-1.165-.048-1.402-.285-.604-.604zm5.188-1.317c3.42-1.095 6.048-1.095 3.5 0-1.1.473-2.9.846-4 .83-1.608-.024-1.5-.187.5-.83zm6.813-1.683c.722-.29 1.584-.253 1.917.08s-.258.57-1.312.525c-1.165-.048-1.402-.285-.604-.604zm4.688-1.182c1.1-.48 3.575-1.16 5.5-1.5 2.403-.436 2.873-.36 1.5.24-1.1.48-3.575 1.16-5.5 1.5-2.403.436-2.873.36-1.5-.24zm2808.64-2.635c0-1.1.387-2.9.86-4l.86-2v2c0 1.1-.387 2.9-.86 4l-.86 2zm-2798.328-.183c.722-.29 1.584-.253 1.917.08s-.258.57-1.312.525c-1.165-.048-1.402-.285-.604-.604zm744.938.02c.688-.277 1.813-.277 2.5 0s.125.504-1.25.504-1.937-.227-1.25-.504zm-740.938-1.02c.722-.29 1.584-.253 1.917.08s-.258.57-1.312.525c-1.165-.048-1.402-.285-.604-.604zm4-1c.722-.29 1.584-.253 1.917.08s-.258.57-1.312.525c-1.165-.048-1.402-.285-.604-.604zm1228.837-21.567c-.36-12.238-.69-52.85-.735-90.25l-.08-68 5.333-.688c5.686-.734 10.733-1.812 99.833-21.332l116.5-25.008c2.425-.4 2.603-.31.93.423-2.32 1.016-25.69 6.406-119.43 27.543l-97.497 23.005c-1.067.836-1.462 8.734-1.902 38.055l-.263 132.25c1.183 1.896 7.228 1.535 29.663-1.77l181.445-25.74c1.13.18-1.322.87-5.447 1.53l-167 25.797-30.5 4.984c-3.85.796-7.72 1.447-8.598 1.448-1.396.001-1.68-2.805-2.253-22.25zm-1224.15 20.25c1.1-.473 2.675-.86 3.5-.86.946 0 .76.317-.5.86-1.1.473-2.675.86-3.5.86-.946 0-.76-.318.5-.86zm6.313-1.683c.722-.29 1.584-.253 1.917.08s-.258.57-1.312.525c-1.165-.048-1.402-.285-.604-.604zm4-1c.722-.29 1.584-.253 1.917.08s-.258.57-1.312.525c-1.165-.048-1.402-.285-.604-.604zm5.188-1.317c3.42-1.095 6.048-1.095 3.5 0-1.1.473-2.9.846-4 .83-1.608-.024-1.5-.187.5-.83zm7.5-1.865c1.1-.48 3.575-1.16 5.5-1.5 2.403-.436 2.873-.36 1.5.24-1.1.48-3.575 1.16-5.5 1.5-2.403.436-2.873.36-1.5-.24zm2765.58-2.718c.048-1.165.285-1.402.604-.604.29.722.253 1.584-.08 1.917s-.57-.258-.525-1.312zm-2755.267-.1c.722-.29 1.584-.253 1.917.08s-.258.57-1.312.525c-1.165-.048-1.402-.285-.604-.604zm4-1c.722-.29 1.584-.253 1.917.08s-.258.57-1.312.525c-1.165-.048-1.402-.285-.604-.604zm4.688-1.182c1.1-.48 3.575-1.16 5.5-1.5 2.403-.436 2.873-.36 1.5.24-1.1.48-3.575 1.16-5.5 1.5-2.403.436-2.873.36-1.5-.24zm10.313-2.818c.722-.29 1.584-.253 1.917.08s-.258.57-1.312.525c-1.165-.048-1.402-.285-.604-.604zm4-1c.722-.29 1.584-.253 1.917.08s-.258.57-1.312.525c-1.165-.048-1.402-.285-.604-.604zm5.188-1.317c3.42-1.095 6.048-1.095 3.5 0-1.1.473-2.9.846-4 .83-1.608-.024-1.5-.187.5-.83zm9.52-2.403c2.212-.736 5.587-1.606 7.5-1.934 3.316-.57 3.29-.534-.543.74-2.212.735-5.587 1.606-7.5 1.934-3.316.57-3.29.534.543-.74zm11.562-2.98c.23-.2 31.692-8.566 69.917-18.568l80.5-21.064 112.177-28.642c.227.227-3.095 1.334-7.382 2.46l-95.795 25.203-40 10.486-118.852 30.506c-.54 0-.794-.172-.565-.382zm1359.186-11.31c.973-.254 2.323-.237 3 .037s-.12.48-1.77.46-2.204-.245-1.23-.498zm28.23-4.307c.34-.55.816-1 1.06-1s.44.45.44 1-.477 1-1.06 1-.78-.45-.44-1zm1.25-12c-.397-5.225-.757-47.128-.8-93.12-.068-73.547-.263-83.883-1.616-85.815-.846-1.208-1.38-2.294-1.186-2.414s1.083-.774 1.975-1.453c4.465-3.395 4.395-4.713 4.072 76.56l-1.014 96.24c-.686 18.86-.733 19.188-1.43 10zm-1120.25-42.57c2.75-.765 5.45-1.353 6-1.306 1.692.145-6.87 2.723-9 2.71-1.1-.007.25-.64 3-1.404zm8.313-2.113c.722-.29 1.584-.253 1.917.08s-.258.57-1.312.525c-1.165-.048-1.402-.285-.604-.604zm4.688-1.317c1.1-.473 2.675-.86 3.5-.86.946 0 .76.317-.5.86-1.1.473-2.675.86-3.5.86-.946 0-.76-.318.5-.86zm10.313-2.683c.722-.29 1.584-.253 1.917.08s-.258.57-1.312.525c-1.165-.048-1.402-.285-.604-.604zm4-1c.722-.29 1.584-.253 1.917.08s-.258.57-1.312.525c-1.165-.048-1.402-.285-.604-.604zm4-1c.722-.29 1.584-.253 1.917.08s-.258.57-1.312.525c-1.165-.048-1.402-.285-.604-.604zm8.688-2.317c1.1-.473 2.675-.86 3.5-.86.946 0 .76.317-.5.86-1.1.473-2.675.86-3.5.86-.946 0-.76-.318.5-.86zm6.313-1.683c.722-.29 1.584-.253 1.917.08s-.258.57-1.312.525c-1.165-.048-1.402-.285-.604-.604zm4-1c.722-.29 1.584-.253 1.917.08s-.258.57-1.312.525c-1.165-.048-1.402-.285-.604-.604zm2603.188-3.358c-7.07-4.8-46.43-28.293-95.5-56.98l-285.5-167.453-53.5-31.792c-.667-.685-.667-.852 0-.5 1.812.957 232.983 135.478 282 164.1l146.237 84.544c9.484 5.08 14.154 8.12 13.988 9.11-.42 2.518-3.02 2.17-7.725-1.03zm-2588.188-.642c.722-.29 1.584-.253 1.917.08s-.258.57-1.312.525c-1.165-.048-1.402-.285-.604-.604zm16-4c.722-.29 1.584-.253 1.917.08s-.258.57-1.312.525c-1.165-.048-1.402-.285-.604-.604zm1964.76-2.888c-.368-1.466-.476-2.857-.24-3.093s.73.77 1.097 2.236.476 2.857.24 3.093-.73-.77-1.097-2.236zm-2-7c-.368-1.466-.476-2.857-.24-3.093s.73.77 1.097 2.236.476 2.857.24 3.093-.73-.77-1.097-2.236zm170.18-244c-3.738-2.028-3.51-2.873.25-.928 1.65.853 3 1.765 3 2.025 0 .644-.107.607-3.25-1.098zm-6.31-3.983c-1.864-1.494-1.852-1.512.31-.465 1.237.6 2.25 1.3 2.25 1.555 0 .765-.52.544-2.56-1.1zm-5-3c-1.864-1.494-1.852-1.512.31-.465 1.237.6 2.25 1.3 2.25 1.555 0 .765-.52.544-2.56-1.1zm-24-14c-1.864-1.494-1.852-1.512.31-.465 1.237.6 2.25 1.3 2.25 1.555 0 .765-.52.544-2.56-1.1zm-949.26-27.695c.3-2.12.926-2.29 10.82-2.915 15.514-.98 28.4-2.098 131-11.352l264.995-23.277c2.23.26-66.916 6.8-299.995 28.33l-98.492 10.46c-1.45.552-4 1.003-5.642 1.003-2.544 0-2.955-.345-2.685-2.25zm412.083-38.468c1.52-.23 3.77-.224 5 .014s-.014.425-2.764.418-3.756-.202-2.236-.432zm10.486-.988c1.238-.24 3.262-.24 4.5 0s.225.433-2.25.433-3.488-.195-2.25-.433zm11.52-.987c.973-.254 2.323-.237 3 .037s-.12.48-1.77.46-2.204-.245-1.23-.498z" fill="#242222"/></svg>