<?xml version="1.0" encoding="UTF-8" standalone="no"?>
<!-- Created with Inkscape (http://www.inkscape.org/) -->

<svg
   xmlns:dc="http://purl.org/dc/elements/1.1/"
   xmlns:cc="http://creativecommons.org/ns#"
   xmlns:rdf="http://www.w3.org/1999/02/22-rdf-syntax-ns#"
   xmlns:svg="http://www.w3.org/2000/svg"
   xmlns="http://www.w3.org/2000/svg"
   xmlns:sodipodi="http://sodipodi.sourceforge.net/DTD/sodipodi-0.dtd"
   xmlns:inkscape="http://www.inkscape.org/namespaces/inkscape"
   version="1.1"
   id="svg2"
   width="640"
   height="640"
   viewBox="0 0 640 640"
   sodipodi:docname="location.svg"
   inkscape:version="0.92.3 (2405546, 2018-03-11)">
  <metadata
     id="metadata8">
    <rdf:RDF>
      <cc:Work
         rdf:about="">
        <dc:format>image/svg+xml</dc:format>
        <dc:type
           rdf:resource="http://purl.org/dc/dcmitype/StillImage" />
        <dc:title></dc:title>
      </cc:Work>
    </rdf:RDF>
  </metadata>
  <defs
     id="defs6" />
  <sodipodi:namedview
     pagecolor="#ffffff"
     bordercolor="#666666"
     borderopacity="1"
     objecttolerance="10"
     gridtolerance="10"
     guidetolerance="10"
     inkscape:pageopacity="0"
     inkscape:pageshadow="2"
     inkscape:window-width="1920"
     inkscape:window-height="1020"
     id="namedview4"
     showgrid="false"
     inkscape:zoom="1.0429825"
     inkscape:cx="312.23934"
     inkscape:cy="293.04302"
     inkscape:window-x="0"
     inkscape:window-y="32"
     inkscape:window-maximized="1"
     inkscape:current-layer="svg2" />
  <g
     id="g817"
     transform="translate(0.95878489,0.95878843)">
    <path
       style="fill:#dcd9c2"
       d="M 281.5,638.80061 C 234.06772,635.36117 180.67211,615.88527 136.5,585.91226 113.19813,570.10077 86.555551,545.72805 68.82176,524 59.27096,512.29803 42,487.38622 42,485.31201 c 0,-0.73653 0.496562,-2.13427 1.103471,-3.10609 0.884075,-1.41562 0.470243,-2.84089 -2.081406,-7.1685 C 24.893878,447.68395 11.134977,409.42701 5.0441514,375 -12.542671,275.59449 16.772196,175.65319 85.222656,101.65257 103.29163,82.118505 127.23025,62.370594 150.17915,48.067398 235.63758,-5.1956683 341.14376,-14.600831 435.39717,22.642142 531.73583,60.709074 604.02873,144.03301 628.09758,244.74632 c 10.88533,45.54835 11.48339,92.16211 1.78439,139.07595 -5.25003,25.39426 -12.57287,46.94094 -24.87014,73.17773 -3.73791,7.975 -7.63222,16.52394 -8.65402,18.99765 -2.53725,6.14253 -19.42338,31.45339 -29.43378,44.11872 -10.55691,13.35678 -38.45814,41.25646 -51.82178,51.81891 -28.13557,22.23799 -60.73313,40.17408 -94.35158,51.91486 -13.8819,4.84807 -40.95719,11.62556 -52.25067,13.0794 -23.82195,3.06668 -59.83165,3.84112 -87,1.87107 z"
       id="path825"
       inkscape:connector-curvature="0" />
    <path
       style="fill:#d3ceb2"
       d="m 296,639.47937 c -0.825,-0.22665 -7.8,-0.8696 -15.5,-1.42878 -22.54851,-1.6375 -50.18811,-8.0314 -76.5,-17.69684 -5.225,-1.91936 -18.05,-7.68288 -28.5,-12.80782 C 125.41003,582.98056 81.836293,544.88247 50.931004,498.63075 43.548353,487.58215 41.525733,483 44.031385,483 c 2.627724,0 1.656897,-3.54126 -3.548192,-12.94266 C 24.778661,441.69191 12.558966,406.70644 7.0377666,374.30176 5.2236174,363.65427 3.0534081,346.85984 2.9928921,343 c -0.020455,-1.30466 -0.1437727,-1.30988 -0.9469673,-0.0401 -0.5850044,0.92487 -0.7136676,-1.31386 -0.3510583,-6.10839 0.3879899,-5.13012 0.2071817,-7.79404 -0.5612376,-8.26895 -1.54407464,-0.95429 -1.54090433,-19.21285 0.0035,-20.16734 0.7758916,-0.47953 0.9591423,-3.27794 0.576848,-8.80902 -0.3344579,-4.83897 -0.2165303,-7.30012 0.292584,-6.10623 0.5705269,1.3379 0.8788508,1.50343 0.9313569,0.5 0.04317,-0.825 0.5308617,-5.55 1.0837603,-10.5 C 10.723112,223.50331 34.022701,167.15009 71.621769,120 81.230109,107.95092 108.59848,80.769975 121,70.959914 169.59641,32.518363 225.91282,9.8232203 288.5,3.4585091 c 4.99386,-0.5078436 6.42682,-0.9401184 5,-1.5083339 -1.1,-0.4380636 1.6478,-0.544352 6.10623,-0.2361965 5.53108,0.3822943 8.32949,0.1990436 8.80902,-0.576848 C 308.80178,0.51170881 311.56648,0 314.55902,0 H 320 v 36.41468 36.41468 l 7.75,0.598179 c 33.81791,2.610212 58.48891,10.858272 84.32291,28.191001 47.59805,31.93482 75.66634,93.92296 67.41368,148.88146 -6.50107,43.29388 -34.51873,115.57063 -69.93166,180.40178 -6.4403,11.79036 -6.38281,12.05857 2.58995,12.08291 15.18376,0.0412 63.32552,4.83049 96.85512,9.63548 26.45867,3.79168 65.5073,11.40026 83.83179,16.33454 5.66463,1.52532 5.46968,3.13475 -1.86905,15.43028 -12.42959,20.82489 -27.06336,39.61437 -45.94299,58.98986 -26.48645,27.18211 -50.63129,45.17126 -83.41618,62.14936 -32.85774,17.01582 -74.69386,29.75437 -107.10357,32.61161 -11.63089,1.02538 -55.95289,2.04331 -58.5,1.34355 z m 50.40178,-337.27743 c 12.04875,-4.15303 18.69762,-8.37728 28.64939,-18.20194 12.91851,-12.7535 19.38521,-25.11936 22.05247,-42.16953 1.33993,-8.56536 0.62413,-22.70306 -1.58627,-31.33047 -3.84987,-15.02637 -14.4733,-30.65878 -27.74105,-40.82106 C 355.90944,160.58964 343.22572,155.84498 327,154.42555 l -7.5,-0.6561 v 76.24728 76.24729 l 9.14057,-0.54534 c 6.41422,-0.38267 11.71184,-1.43161 17.76121,-3.51674 z"
       id="path823"
       inkscape:connector-curvature="0" />
    <path
       style="fill:#bf3221"
       d="M 298.5,639.40689 C 195.49366,631.55809 106.109,580.23132 51.544101,497.59902 c -4.24696,-6.43153 -7.481208,-12.32053 -7.187216,-13.08666 1.675946,-4.36745 74.330435,-21.79134 120.768145,-28.96243 19.42514,-2.99971 54.63169,-7.16611 68.80057,-8.14198 5.44472,-0.37499 10.41809,-1.00233 11.05194,-1.39407 0.78092,-0.48264 -1.2734,-5.08993 -6.37238,-14.2915 -37.42117,-67.5299 -65.88213,-139.21135 -72.16661,-181.75803 -4.01545,-27.18508 1.15575,-58.62803 14.06605,-85.5271 C 191.22832,142.09399 211.22167,118.45762 231.5,104.14989 260.75277,83.510098 298.78034,73.008391 333.44648,75.996318 405.21671,82.182301 461.787,132.57446 476.02092,203 c 3.04756,15.07848 3.61921,31.84739 1.56812,46 -6.31608,43.58133 -33.70665,114.83146 -69.31307,180.3016 -4.12835,7.59088 -7.27477,14.03293 -6.99203,14.31567 0.28274,0.28274 9.67202,1.14867 20.86506,1.9243 40.15432,2.78252 71.87511,6.46831 107.851,12.53175 24.95239,4.20552 63.88981,12.52555 65.40887,13.97638 1.7972,1.71647 -14.04336,26.62601 -29.80107,46.86264 -10.27229,13.19207 -30.22026,33.95165 -42.57369,44.30587 -49.3171,41.3359 -106.60926,66.36528 -170.03411,74.28325 -12.24328,1.52845 -44.60066,2.65973 -54.5,1.90543 z m 40.29216,-332.96207 c 4.60196,-0.92852 11.76856,-3.5209 17.7853,-6.43348 32.85483,-15.90436 50.22902,-54.09644 40.93164,-89.97624 -3.69294,-14.25152 -14.10526,-30.33616 -26.00127,-40.166 -7.14851,-5.90692 -21.46222,-13.20551 -30.50783,-15.55601 -8.7676,-2.27827 -28.01699,-2.25074 -37.5,0.0536 -15.35557,3.73139 -31.38475,13.81448 -41.70287,26.23301 -5.70314,6.86411 -13.1067,21.28993 -15.34528,29.90027 -5.06352,19.47597 -1.82654,42.15348 8.49749,59.53139 11.6082,19.53949 30.20055,32.25946 54.55066,37.32089 4.99427,1.03811 22.30782,0.50174 29.29216,-0.90746 z"
       id="path821"
       inkscape:connector-curvature="0" />
    <path
       style="fill:#185656"
       d="M 298.5,639.40689 C 195.49366,631.55809 106.109,580.23132 51.544101,497.59902 47.297141,491.16749 44.062893,485.27849 44.356885,484.51236 46.031297,480.14891 118.77966,462.69875 165,455.57368 c 23.17538,-3.57259 80.72501,-10.05876 81.6814,-9.20597 0.0998,0.089 4.10281,6.68012 8.89564,14.64702 25.87622,43.01276 50.21531,74.10391 62.15373,79.39618 4.05849,1.79913 4.41622,1.80467 8.78508,0.13619 12.98421,-4.95872 38.4216,-36.65665 63.83605,-79.5471 4.72554,-7.975 8.94203,-15.06433 9.36999,-15.75407 1.18681,-1.91277 45.19301,1.3301 86.27811,6.35795 36.90025,4.51572 106.31069,17.48681 109.40887,20.44582 1.7972,1.71647 -14.04336,26.62601 -29.80107,46.86264 -10.27229,13.19207 -30.22026,33.95165 -42.57369,44.30587 -49.3171,41.3359 -106.60926,66.36528 -170.03411,74.28325 -12.24328,1.52845 -44.60066,2.65973 -54.5,1.90543 z"
       id="path819"
       inkscape:connector-curvature="0" />
  </g>
</svg>
