<?xml version="1.0" encoding="UTF-8" standalone="no"?>
<!-- Created with Inkscape (http://www.inkscape.org/) -->

<svg
   xmlns:dc="http://purl.org/dc/elements/1.1/"
   xmlns:cc="http://creativecommons.org/ns#"
   xmlns:rdf="http://www.w3.org/1999/02/22-rdf-syntax-ns#"
   xmlns:svg="http://www.w3.org/2000/svg"
   xmlns="http://www.w3.org/2000/svg"
   xmlns:sodipodi="http://sodipodi.sourceforge.net/DTD/sodipodi-0.dtd"
   xmlns:inkscape="http://www.inkscape.org/namespaces/inkscape"
   version="1.1"
   id="svg2"
   width="640"
   height="640"
   viewBox="0 0 640 640"
   sodipodi:docname="phone.svg"
   inkscape:version="0.92.3 (2405546, 2018-03-11)">
  <metadata
     id="metadata8">
    <rdf:RDF>
      <cc:Work
         rdf:about="">
        <dc:format>image/svg+xml</dc:format>
        <dc:type
           rdf:resource="http://purl.org/dc/dcmitype/StillImage" />
        <dc:title></dc:title>
      </cc:Work>
    </rdf:RDF>
  </metadata>
  <defs
     id="defs6" />
  <sodipodi:namedview
     pagecolor="#ffffff"
     bordercolor="#666666"
     borderopacity="1"
     objecttolerance="10"
     gridtolerance="10"
     guidetolerance="10"
     inkscape:pageopacity="0"
     inkscape:pageshadow="2"
     inkscape:window-width="1920"
     inkscape:window-height="1020"
     id="namedview4"
     showgrid="false"
     inkscape:zoom="1.0429825"
     inkscape:cx="363.73454"
     inkscape:cy="340.30308"
     inkscape:window-x="0"
     inkscape:window-y="32"
     inkscape:window-maximized="1"
     inkscape:current-layer="svg2" />
  <g
     id="g817"
     transform="translate(2.8597182e-6)">
    <path
       style="fill:#689191"
       d="M 285,638.4932 C 215.99723,632.70186 140.37795,595.82168 89.969704,543.37521 39.373396,490.73308 6.9898765,421.12467 1.4467163,353.09495 -3.9190898,287.24184 5.2316481,234.71235 31.513083,180.5 63.20565,115.12577 114.33649,63.826155 179.5,32.024587 234.27253,5.2940996 286.93683,-3.9853455 353,1.4538996 413.49631,6.4348031 475.67956,32.55183 525.36589,73.847754 c 55.2926,45.955466 94.46917,111.562816 109.13901,182.770466 7.09814,34.45445 7.09814,92.30911 0,126.76356 -10.61225,51.51205 -34.63841,101.41989 -68.35265,141.98411 -45.9559,55.29311 -111.98392,94.69458 -182.89496,109.14047 -24.95702,5.08421 -65.55519,6.7315 -98.25729,3.98684 z m 58.05011,-26.54227 c 70.19498,-5.47507 133.48008,-34.59662 183.50236,-84.44126 65.30265,-65.07073 95.37247,-153.01746 83.91786,-245.43882 C 602.54785,218.14841 573.9918,160.11135 527.50285,113.44851 475.69093,61.442786 411.61653,32.437535 338.25,27.777368 253.11857,22.369908 172.91218,52.807501 112.49715,113.44851 65.887241,160.23276 38.04813,216.86757 29.352227,282.59532 c -2.356269,17.80981 -2.356269,56.99955 0,74.80936 8.745529,66.10284 36.875227,122.9946 84.107123,170.10499 61.07054,60.91342 143.33398,91.16913 229.59076,84.44126 z M 377.5,487.87246 C 343.18747,483.58563 301.3242,462.22239 255,425.3595 237.69611,411.58978 225.95021,399.85805 212.63577,383.04636 167.37306,325.89471 145.15372,273.00988 151.38526,237.2624 154.35704,220.21464 165.9316,189 169.28123,189 170.52054,189 250,267.9656 250,269.19691 c 0,0.35132 -1.2375,3.03824 -2.75,5.97093 -2.49051,4.82901 -2.75,6.33007 -2.75,15.90755 0,10.42759 0.0589,10.69313 4.21342,19 5.24211,10.48143 16.73446,24.37522 36.7796,44.46506 22.63042,22.6809 36.47956,33.65859 48.00698,38.05334 3.64677,1.3903 7.57113,1.90621 14.5,1.90621 8.33947,0 10.18406,-0.33594 15.09967,-2.75 3.07982,-1.5125 6.00693,-2.75 6.50469,-2.75 0.49776,0 18.85582,17.95501 40.79568,39.90002 26.1442,26.15033 39.70062,40.39528 39.33917,41.3372 -1.38137,3.59979 -37.41622,15.9076 -51.88664,17.72203 -9.25488,1.16047 -10.40869,1.15555 -20.35257,-0.0868 z m 36.24531,-60.62709 C 391.88539,405.38032 374,386.78951 374,385.93246 374,384.26381 378.98046,379 380.55929,379 381.94734,379 463,460.29424 463,461.68642 463,463.28018 457.63821,467 455.34094,467 c -1.10288,0 -17.90539,-16.05884 -41.59563,-39.75463 z m 14.50017,-13.49983 C 404.59036,390.08526 387,371.72633 387,370.69792 c 0,-3.19708 9.13068,-11.22518 15.55911,-13.68026 13.81037,-5.27432 29.91032,-2.84672 51.87268,7.82151 18.87223,9.16721 27.95405,17.0744 34.14545,29.72917 5.62042,11.48774 7.09406,26.01169 3.57808,35.26501 C 488.52523,439.38696 475.72935,455 471.52964,455 c -1.3521,0 -15.92907,-13.89342 -43.28416,-41.25446 z M 211.74531,225.24537 c -25.81778,-25.82383 -39.744,-40.45385 -39.74157,-41.75 C 172.00786,181.29753 175.5187,175 176.73987,175 178.25203,175 259,256.54044 259,258.06743 259,259.73623 254.01957,265 252.44059,265 c -0.52248,0 -18.83536,-17.88958 -40.69528,-39.75463 z m 13.00023,-14.99978 C 201.78549,187.28066 183,167.77094 183,166.89065 c 0,-3.32744 15.49354,-16.018 24.28334,-19.89017 15.04271,-6.62679 36.81602,-0.88912 51.22803,13.49952 5.827,5.81755 8.13301,9.19597 13.65144,20 9.33788,18.28177 12.12526,27.39558 12.23368,40 0.0774,8.9976 -0.20176,10.62493 -2.78476,16.23431 C 278.77743,242.88942 270.52764,252 267.78838,252 c -0.71352,0 -20.0828,-18.78949 -43.04284,-41.75441 z"
       id="path821"
       inkscape:connector-curvature="0" />
    <path
       style="fill:#1a5757"
       d="M 294.25,639.3285 C 290.8125,639.09534 288,638.47604 288,637.95228 288,637.42853 286.46076,637 284.57947,637 c -1.88129,0 -9.86879,-1.10024 -17.75,-2.44497 C 201.59589,623.42452 141.36257,592.30376 94.47197,545.50305 68.488007,519.5689 43.938506,484.30519 29.726133,452.5 16.540186,422.9918 7.3251335,390.97443 3.8228557,362.5 3.1463706,357 2.1219842,352.17891 1.5464414,351.78647 c -1.4471299,-0.98673 -1.4471299,-62.58621 0,-63.57294 C 2.1219842,287.82109 3.1463706,283 3.8228557,277.5 8.2313016,241.65819 21.988873,199.52121 39.737463,167.5 65.47008,121.07436 100.14025,83.336913 143.5,54.557548 169.14916,37.533313 188.99302,27.752879 217.83455,17.920306 239.54698,10.518167 273.21928,3.0009056 284.66667,3.0001962 286.40833,3.0000883 288.02083,2.4375 288.25,1.75 c 0.6062,-1.81860303 62.8938,-1.81860303 63.5,0 0.22917,0.6875 1.84167,1.2500883 3.58333,1.2501962 C 357.075,3.0003042 364.125,3.9146954 371,5.0321767 436.71444,15.713581 497.79614,47.01857 545.43318,94.430936 565.98559,114.88641 585.55611,140.96732 600.26254,167.5 c 17.74859,32.02121 31.50616,74.15819 35.9146,110 0.67649,5.5 1.70088,10.32109 2.27642,10.71353 1.44713,0.98673 1.44713,62.58621 0,63.57294 -0.57554,0.39244 -1.59993,5.21353 -2.27642,10.71353 -3.47464,28.2498 -12.84081,60.79624 -25.90007,90 -14.09758,31.5257 -38.62319,66.85065 -64.25766,92.55215 -46.68878,46.81086 -107.65318,78.37884 -172.84888,89.50288 C 365.28932,635.89976 357.33932,637 355.50386,637 c -1.83546,0 -3.50701,0.50945 -3.71456,1.13211 -0.38847,1.1654 -44.48026,2.08219 -57.5393,1.19639 z m 47.35478,-25.35713 C 402.57492,609.10787 457.24705,587.51297 504.5,549.62952 517.54529,539.1709 540.36214,516.23895 550.85515,503.04051 639.48357,391.56097 635.53774,233.11573 541.46309,125.90163 496.35779,74.496451 436.25335,40.788685 369.55478,29.492036 286.58643,15.439794 202.81923,36.914446 136.95949,89.120426 123.53894,99.758681 99.758681,123.53894 89.120426,136.95949 15.071642,230.37472 4.4563684,358.55745 62.149679,462.63965 86.82146,507.14903 125.03254,546.7623 168.09994,572.47788 c 53.01639,31.65612 113.99943,46.24014 173.50484,41.49349 z m 31.5165,-128.61371 C 340.14626,480.27326 298.7091,458.41642 254.00795,422.52899 237.65892,409.40351 227.78766,399.48395 214.67139,383 187.55525,348.92163 167.82766,315.08508 158.67022,286.94742 151.7322,265.62926 150.56642,245.24434 155.27053,227.5 159.81843,210.34484 167.2861,191 169.36057,191 170.52248,191 248,268.00415 248,269.15895 c 0,0.32965 -1.19822,3.21663 -2.66272,6.41551 -3.73602,8.16054 -4.28084,17.96614 -1.50477,27.08284 2.63178,8.64287 7.25508,16.31617 16.40985,27.23546 10.07714,12.01945 41.55424,43.29361 51.75764,51.42396 19.19748,15.29707 35.27711,19.15881 50.78875,12.1976 4.58189,-2.05624 6.44437,-2.45243 7.85822,-1.67162 1.01917,0.56285 18.95303,18.18006 39.85303,39.14936 43.57276,43.71726 40.73754,38.42337 24.06211,44.92839 -18.20982,7.10357 -35.54805,11.14196 -47.06211,10.96162 -2.75,-0.0431 -9.22042,-0.72906 -14.37872,-1.52441 z m 42.56848,-59.16785 c -21.82937,-21.83449 -39.67562,-40.14699 -39.65834,-40.69444 0.0173,-0.54745 1.19325,-1.84232 2.61324,-2.87747 l 2.58182,-1.8821 39.88676,39.87741 C 443.05096,442.54579 461,460.95821 461,461.5297 c 0,0.5715 -1.26461,1.78611 -2.81024,2.69913 l -2.81023,1.66005 z m 14.49307,-13.50694 C 407.53227,390.02738 389,370.99961 389,370.39894 c 0,-2.21204 7.52889,-8.75172 12.91363,-11.21694 11.48025,-5.25583 27.67718,-3.65577 46.90453,4.6336 21.88823,9.43653 34.28842,20.52269 40.30353,36.03261 2.64455,6.81897 3.74472,22.99653 1.9365,28.47548 -2.24718,6.80902 -13.54936,22.26326 -18.03911,24.6661 -1.32797,0.7107 -9.75966,-7.22313 -42.83625,-40.30692 z M 212.57871,223.07873 172.6668,183.15747 l 1.68966,-2.57874 C 175.28576,179.16043 176.60037,178 177.2778,178 179.1171,178 257,256.2517 257,258.0997 c 0,1.39459 -2.92131,4.9003 -4.08343,4.9003 -0.23427,0 -18.3863,-17.96457 -40.33786,-39.92127 z m 13.19966,-13.8123 C 203.35027,186.86296 185,167.77621 185,166.85141 c 0,-2.9124 15.46331,-15.24068 23.5,-18.73561 4.96857,-2.16069 16.2209,-2.50549 23.77132,-0.7284 17.30929,4.07394 28.01786,13.46419 38.85383,34.07055 14.45652,27.49146 15.55149,50.58431 3.01519,63.5905 -2.62497,2.72335 -5.40512,4.95155 -6.17813,4.95155 -0.773,0 -19.75573,-18.33011 -42.18384,-40.73357 z"
       id="path819"
       inkscape:connector-curvature="0" />
  </g>
</svg>
