<?xml version="1.0" standalone="no"?>
<!DOCTYPE svg PUBLIC "-//W3C//DTD SVG 20010904//EN"
 "http://www.w3.org/TR/2001/REC-SVG-20010904/DTD/svg10.dtd">
<svg version="1.0" xmlns="http://www.w3.org/2000/svg"
 width="171.000000pt" height="171.000000pt" viewBox="0 0 171.000000 171.000000"
 preserveAspectRatio="xMidYMid meet">
<metadata>
Created by potrace 1.11, written by Peter Selinger 2001-2013
</metadata>
<g transform="translate(0.000000,171.000000) scale(0.100000,-0.100000)"
fill="#000000" stroke="none">
<path d="M1077 1293 c-11 -18 -117 -305 -117 -317 0 -7 47 -128 104 -268 57
-141 105 -261 108 -268 4 -12 47 82 261 575 l114 260 -130 3 c-93 2 -133 -1
-138 -9 -4 -7 -26 -63 -50 -126 -23 -62 -45 -113 -48 -113 -4 0 -26 61 -50
135 -24 74 -45 135 -47 135 -1 0 -5 -3 -7 -7z"/>
<path d="M170 860 l0 -420 475 0 c261 0 475 2 475 3 0 3 -57 143 -87 215 -4 9
-72 12 -294 12 l-289 0 0 305 0 305 -140 0 -140 0 0 -420z"/>
<path d="M500 1272 c0 -8 97 -245 134 -327 8 -16 31 -70 52 -120 20 -49 42
-96 47 -102 7 -9 48 -13 143 -13 74 0 134 2 134 5 0 5 -46 119 -190 470 l-36
90 -142 3 c-78 1 -142 -1 -142 -6z"/>
</g>
</svg>
